<?xml version="1.0" standalone="no"?>
<!DOCTYPE svg PUBLIC "-//W3C//DTD SVG 1.1//EN" "http://www.w3.org/Graphics/SVG/1.1/DTD/svg11.dtd" >
<svg xmlns="http://www.w3.org/2000/svg">
<metadata>Generated by IcoMoon</metadata>
<defs>
<font id="icomoon" horiz-adv-x="512">
<font-face units-per-em="512" ascent="480" descent="-32" />
<missing-glyph horiz-adv-x="512" />
<glyph unicode="&#x20;" d="" horiz-adv-x="256" />
<glyph unicode="&#xe600;" d="M295.202 168.841c-11.298 0-20.31 7.39-20.31 18.825v20.719c0 11.435 9.011 19.763 20.31 19.763h122.829v-59.29l-122.829-0.017zM310.664 212.685c-8.448 0-15.309-6.963-15.309-15.548 0-8.567 6.861-15.514 15.309-15.514 8.482 0 15.36 6.946 15.36 15.514 0.017 8.584-6.878 15.548-15.36 15.548v0zM264.687 208.367v-20.719c0-17.152 13.585-31.539 30.515-31.539h101.649v-42.325c0-17.186-13.005-29.662-29.935-29.662h-214.698c-16.93 0-30.651 13.892-30.651 31.062v196.711c0 17.152 12.714 30.583 29.627 30.583h97.417l-25.429-12.697h-76.22c-8.482 0-15.19-3.909-15.19-12.493 0-8.567 6.725-17.152 15.19-17.152h249.89v-59.29h-101.649c-16.93 0-30.515-15.326-30.515-32.478v0zM162.44 280.832h-20.446v-20.702h10.223v10.342h10.223v10.36zM162.44 249.77h-20.446v-20.702h10.649l-0.427 10.343 10.223-0.205v10.565zM162.44 218.709h-20.446v-20.702h10.445l-0.222 10.36h10.223v10.342zM162.44 187.648h-20.446v-20.702h10.445l-0.222 10.36 10.223-0.256v10.599zM162.44 156.587h-20.446v-20.702h10.223v10.342h10.223v10.36zM162.44 125.526h-20.446v-20.719h10.445l-0.222 10.154h10.223v10.565zM203.35 312.525l120.132 51.132 23.006-51.132h-143.138zM342.853 342.954h24.064c8.943 0 15.872-6.981 21.453-13.175h-42.342l-3.175 13.175z" />
<glyph unicode="&#xe601;" d="M409.293 110.233c-9.591 0-17.357 7.646-17.357 17.067v204.8c0 9.421 7.765 17.067 17.357 17.067 9.608 0 17.374-7.646 17.374-17.067v-204.8c0-9.421-7.765-17.067-17.374-17.067v0zM322.491 132.983c0-12.561-10.342-22.75-23.125-22.75h-104.175c-12.783 0-23.142 10.189-23.142 22.75v45.056l-46.183 10.12v82.227l254.89 55.211v-193.246l-58.248 12.749v-12.118h-0.017zM310.921 147.627l-127.3 27.87v-42.513c0-6.281 5.189-11.366 11.571-11.366h104.175c6.383 0 11.554 5.086 11.554 11.366v14.643zM102.605 178.5c-6.4 0-11.571 5.103-11.571 11.366v79.65c0 6.281 5.189 11.384 11.571 11.384s11.588-5.086 11.588-11.384v-79.65c-0.017-6.264-5.206-11.366-11.588-11.366v0z" />
<glyph unicode="&#xe602;" d="M221.371 194.236h-124.723v56.713h124.723l0.734 37.307 70.041-63.88-70.041-67.447-0.734 37.308zM161.69 80.827v68.028h22.665v-34.031h136.089v226.799h-136.089l0.307-44.63-22.971-0.7v79.36h215.45v-294.81l-215.45-0.017z" />
<glyph unicode="&#xe603;" d="M349.44 183.125h-23.928v129.195h-43.059v33.485h-114.808v-229.666h90.897v-19.132h-114.841v272.709h159.522l46.507-45.090-0.29-141.5zM357.495 117.897l32.853-32.904c2.134-2.134 2.134-5.598 0-7.731l-11.606-11.606c-2.116-2.134-5.563-2.134-7.714 0l-32.853 32.87-32.837-32.87c-2.151-2.134-5.598-2.134-7.748 0l-11.589 11.606c-2.151 2.134-2.151 5.598 0 7.731l32.853 32.904-32.853 32.837c-2.151 2.134-2.151 5.598 0 7.731l11.589 11.639c2.151 2.099 5.598 2.099 7.748 0l32.837-32.904 32.853 32.904c2.151 2.099 5.598 2.099 7.714 0l11.606-11.639c2.134-2.134 2.134-5.598 0-7.731l-32.853-32.837z" />
<glyph unicode="&#xe604;" d="M383.914 283.665h-170.496c-16.708 0-28.433-17.442-28.433-34.133v-130.714c0-16.691 11.725-28.399 28.433-28.399l41.489 0.598 40.448-40.397 40.482 40.397 46.166-1.11c16.709 0 30.327 14.762 30.327 31.437v129.877c0 16.691-11.707 32.443-28.416 32.443v0zM366.865 323.447c0 16.674-15.257 17.049-31.949 17.049h-182.101c-16.691 0-30.344-10.683-30.344-27.358v-141.466c0-16.674 4.933-30.31 21.623-30.31l12.476 0.222c0 0-2.373 131.157-0.171 129.195 0.563 16.248 17.613 41.233 34.287 41.318h176.179v11.35z" />
<glyph unicode="&#xe605;" d="M352.632 116.668l-135.424 41.745 120.866 142.37-155.972-132.182-126.635 38.298 366.917 177.305-69.751-267.537zM212.958 63.795v73.608l44.561-12.783-44.561-60.825z" />
<glyph unicode="&#xe606;" d="M127.403 191.437v91.938h113.561v-91.938h-113.561zM271.036 191.437v91.938h113.545v-91.938h-113.544zM127.403 69.7v91.973h113.561v-91.972h-113.561zM271.036 69.7v91.973h113.545v-91.972h-113.544zM255.949 278.75l-21.76 99.55h43.503l-21.743-99.55zM169.472 333.927l30.754 30.447 55.739-85.607-86.494 55.16zM255.949 278.75l55.74 85.606 30.754-30.447-86.494-55.159z" />
<glyph unicode="&#xe607;" d="M265.95 389.41c-73.489 0-135.339-49.493-153.668-116.77-0.171-0.615-0.222-1.263-0.376-1.877h-25.037l48.999-48.691 48.964 48.691h-28.706c0.273 0.717 0.529 1.416 0.802 2.116 5.854 14.712 14.695 27.904 25.72 38.946 1.792-2.816 3.703-5.803 5.871-9.199 15.155-23.569 26.931-43.298 35.362-59.204-9.25 0-23.655 0.205-43.144 0.631v-16.111h50.518c4.062-8.653 7.134-16.179 9.25-22.579h-59.767v-15.702c26.948 0.392 48.401 0.632 64.409 0.632 0-22.921-0.307-47.462-0.905-73.523-38.093 6.878-69.734 32.154-85.197 66.27-0.188 0.375-0.29 0.819-0.461 1.195l-31.198-30.805c0.205-0.375 0.359-0.785 0.563-1.144 0.051-0.086 0.103-0.171 0.153-0.239 27.512-47.274 78.951-79.070 137.847-79.070 87.911 0 159.163 70.827 159.163 158.225 0 87.381-71.254 158.208-159.163 158.208zM240.214 282.641c-18.193 32.7-27.273 49.528-27.273 50.518h-1.058c15.975 8.209 34.082 12.885 53.299 12.885 19.2 0 37.274-4.693 53.214-12.885h-1.075c0-1.673-8.106-18.654-24.303-50.944-16.214-32.29-24.32-54.698-24.32-67.243h-1.263c0.017 12.407-9.063 34.969-27.221 67.669zM280.712 115.985c-0.819 22.494-1.263 47.19-1.263 74.308 18.654 0 40.482-0.239 65.468-0.632v15.702h-60.194c1.945 5.427 5.274 12.971 9.882 22.579h50.313v16.111c-17.544-0.427-31.71-0.768-42.53-1.041 8.141 15.19 20.070 34.935 35.789 59.204 2.816 4.352 5.257 8.209 7.441 11.656 22.067-21.043 35.909-50.603 35.909-83.439-0.017-58.607-43.93-106.922-100.813-114.449z" />
<glyph unicode="&#xe608;" d="M418.373 93.167h-41.796v13.585c7.697 0 13.926 6.075 13.926 13.602 0 7.493-6.229 13.585-13.926 13.585h-27.87c-7.697 0-13.926-6.075-13.926-13.585s6.229-13.602 13.926-13.602v-13.585h-171.469v13.585c7.697 0 13.927 6.075 13.927 13.602 0 7.493-6.23 13.585-13.927 13.585h-27.87c-7.697 0-13.944-6.075-13.944-13.585s6.246-13.602 13.944-13.602v-13.585h-55.757c-15.394 0-27.87 12.168-27.87 27.187v190.242c0 15.018 12.459 27.187 27.87 27.187h324.762c15.394 0 27.904-12.168 27.904-27.187v-190.242c-0.017-15.019-12.51-27.187-27.904-27.187v0zM177.238 299.571c-16.827 0-30.481-17.511-30.481-39.083s13.654-39.065 30.481-39.065 30.498 17.476 30.498 39.065-13.654 39.083-30.498 39.083v0zM225.894 206.131c-7.493 4.881-29.133 8.123-29.133 8.123s-14.029-14.592-19.985-14.592-19.985 14.592-19.985 14.592-21.624-3.226-29.115-8.123c-7.51-4.864-10.838-30.72-10.838-30.72h120.081c0-0.017-2.185 24.969-11.025 30.72v0zM390.502 283.409h-125.44v-13.585h125.44v13.585zM390.502 256.239h-125.44v-13.602h125.44v13.602zM390.502 229.069h-125.44v-13.602h125.44v13.602zM390.502 201.882h-125.44v-13.585h125.44v13.585z" />
<glyph unicode="&#xe609;" d="M89.242 283.75l112.487-109.329v66.253c34.048 0 120.781-0.768 120.781-90.897 0-47.207-33.11-86.579-77.159-95.693 70.759 9.694 125.491 70.349 125.491 144.537 0 137.779-145.664 138.94-169.113 138.94v56.388l-112.487-110.199z" />
<glyph unicode="&#xe60a;" d="M190.071 282.982c0 0 8.584 55.825 57.549 83.32l3.653 33.502h7.731l4.079-33.502c0 0 46.387-25.481 56.695-83.32h-129.707zM181.060 238.609c0 0-135.714-60.996 0-176.094 0 0-6.486 136.089 0 176.094zM330.957 238.609c0 0 135.714-60.996 0-176.094 0 0 6.469 136.089 0 176.094zM226.15 81.988h63.573v-17.186h-63.573v17.186zM240.743 60.791h34.373v-12.595h-34.373v12.595zM190.071 274.978c0 0-16.025-133.99 33.212-184.969h66.424c0 0 33.792 9.728 34.935 184.969h-134.571zM254.925 205.534c-15.411 0-27.921 12.493-27.921 27.921 0 15.411 12.493 27.921 27.921 27.921s27.921-12.493 27.921-27.921c0-15.428-12.493-27.921-27.921-27.921z" />
<glyph unicode="&#xe60b;" d="M374.63 67.857h-237.261c-11.912 0-21.573 9.642-21.573 21.521v236.8c0 11.896 9.659 21.538 21.573 21.538h21.555v-10.752c0-17.834 14.489-32.307 32.358-32.307 17.852 0 32.358 14.472 32.358 32.307v10.752h64.682v-10.752c0-17.834 14.507-32.307 32.358-32.307 17.886 0 32.358 14.472 32.358 32.307v10.752h21.589c11.896 0 21.555-9.625 21.555-21.538v-236.817c0-11.861-9.659-21.504-21.555-21.504v0zM375.040 274.176h-238.080v-185.173h238.063v185.173h0.017zM195.157 215.978h-37.035v37.035h37.017v-37.035h0.017zM195.157 163.072h-37.035v37.034h37.017v-37.034h0.017zM195.157 110.166l-36.232 0.734-0.802 36.301h37.018v-37.034h0.017zM248.064 215.978h-37.035v37.035h37.035v-37.035zM248.064 110.166h-37.035v37.034h37.035v-37.034zM300.971 215.978h-37.034v37.035h37.034v-37.035zM300.971 163.072h-37.034v37.034h37.034v-37.034zM353.861 215.978h-37.034v37.035h37.034v-37.035zM353.861 163.072h-37.034v37.034h37.034v-37.034zM353.058 110.899l-36.216-0.734v37.034h37.034l-0.819-36.301zM341.606 358.81v-22.204c0-11.707-9.523-21.179-21.231-21.179-11.742 0-21.231 9.472-21.231 21.179v22.203zM212.19 358.81v-22.204c0-11.707-9.506-21.179-21.231-21.179-11.742 0-21.231 9.472-21.231 21.179v22.203z" />
<glyph unicode="&#xe60c;" d="M355.106 206.285v97.365h-54.989v41.558h-137.387v-248.542h96.325v-27.733h-123.784v303.991h191.471l55.825-54.545v-112.077l-27.461-0.017zM181.521 249.446v27.29h154.282v-27.29h-154.282zM178.858 179.251v24.678h158.293v-24.678h-158.293zM334.524 49.493c-36.676 0-66.423 29.986-66.423 66.952 0 37 29.73 66.987 66.423 66.987 36.625 0 66.389-29.986 66.389-66.986-0.017-36.966-29.764-66.952-66.389-66.952v0zM371.558 139.947l-6.587 6.639c-1.195 1.229-3.209 1.229-4.403 0l-39.611-39.936-18.875 19.149c-1.212 1.212-3.175 1.212-4.386 0l-6.622-6.69c-1.195-1.246-1.195-3.209 0-4.454l20.958-21.265c0.034-0.034 0.051-0.086 0.086-0.12l4.539-4.574 1.092-1.11 0.955-0.955c1.229-1.246 3.209-1.246 4.421 0l48.435 48.845c1.246 1.246 1.246 3.226 0 4.471v0z" />
<glyph unicode="&#xe60d;" d="M231.577 262.571l13.039-25.464h0.41v-0.205h-16.281v-5.888h16.281v-8.653h-16.281v-5.871h16.281v-33.962h-12.271v-5.854h46.438v5.854h-11.656v33.962h15.702v5.871h-15.702v8.653h15.702v5.871h-15.702v1.638h-0.171l13.619 24.047v0.188h10.274v5.871h-28.143v-5.871h7.39l-13.79-24.218h-2.167l-12.578 24.218h6.878v5.871h-28.126v-5.871h10.855zM313.566 305.067v53.111c-3.618 16.538-24.406 14.848-28.808 0v-53.111h-10.325v64.665c-7.065 15.736-22.203 15.497-28.791 0v-64.665h-10.376v53.777c-6.195 13.159-21.794 16.008-28.792 0v-53.777h-10.343v41.54c-5 12.595-21.487 16.76-28.774 0v-41.54h-49.578v-151.535h51.166c1.519-51.661 41.165-93.303 89.549-93.303 48.367 0 88.047 41.608 89.549 93.303h46.2v151.535h-80.674zM384.632 161.707h-37.939v70.281c-5 25.737-21.504 34.133-28.808 0v-70.281h-192.017v134.469h258.765v-134.469zM220.723 268.63h28.126v-5.871h-6.878l12.578-24.218h2.167l13.79 24.218h-7.39v5.871h28.143v-5.871h-10.291v-0.188l-13.619-24.047h0.171v-1.638h15.702v-5.871h-15.702v-8.653h15.702v-5.871h-15.702v-33.962h11.673v-5.871h-46.439v5.871h12.271v33.962h-16.281v5.871h16.281v8.653h-16.281v5.888h16.281v0.205h-0.41l-13.039 25.464v0.188h-10.855v5.871z" />
<glyph unicode="&#xe60e;" d="M359.51 82.995h-208.606c-19.183 0-34.765 15.803-34.765 35.192v202.070c0 19.387 15.582 35.157 34.765 35.157h208.623c19.132 0 34.765-15.752 34.765-35.157v-202.070c0-19.387-15.633-35.192-34.782-35.192v0zM366.063 311.279c0 8.823-7.099 16.009-15.855 16.009h-190.003c-8.738 0-15.838-7.185-15.838-16.009v-184.098c0-8.858 7.117-16.026 15.838-16.026h190.021c8.755 0 15.855 7.185 15.855 16.026v184.098h-0.017zM338.654 264.619h-132.113c-4.813 0-9.728 6.468-9.728 11.315 0 4.881 4.915 9.643 9.728 9.643h132.113c4.779 0 12.185-4.762 12.185-9.643 0-4.847-7.407-11.315-12.185-11.315v0zM338.654 208.76h-132.113c-4.813 0-9.728 7.117-9.728 11.964 0 4.881 3.891 8.806 8.704 8.806h136.584c4.813 0 8.721-3.925 8.721-8.806 0.017-4.847-7.39-11.964-12.168-11.964v0zM342.118 153.566h-136.584c-4.813 0-8.704 3.909-8.704 8.755s4.915 11.52 9.728 11.52h139.042c4.83 0 5.257-6.69 5.257-11.52s-3.925-8.755-8.738-8.755v0zM164.813 264.619v20.958h20.856v-20.958h-20.856zM164.813 208.76v20.941h20.856v-20.941h-20.856zM164.813 152.866v20.975h20.856v-20.975h-20.856z" />
<glyph unicode="&#xe60f;" d="M256 368.35c-79.719 0-144.35-64.632-144.35-144.35s64.631-144.367 144.35-144.367c79.719 0 144.367 64.649 144.367 144.367s-64.649 144.35-144.367 144.35zM256 101.069c-67.891 0-122.931 55.040-122.931 122.931s55.040 122.931 122.931 122.931c67.909 0 122.931-55.040 122.931-122.931 0-67.909-55.023-122.931-122.931-122.931zM256 213.965c0-5-4.369-9.011-9.779-9.011v0c-5.393 0-9.762 4.010-9.762 9.011v96.768c0 4.984 4.369 9.029 9.762 9.029v0c5.41 0 9.779-4.027 9.779-9.011v-96.785zM244.617 204.954c-4.506 0-8.158 4.369-8.158 9.762v0c0 5.393 3.653 9.762 8.158 9.762h87.552c4.522 0 8.175-4.369 8.175-9.762v0c0-5.393-3.652-9.762-8.175-9.762h-87.552z" />
<glyph unicode="&#xe610;" d="M194.321 64.512c-68.266 38.127-86.238 74.257-75.963 123.529 7.578 36.403 35.584 66.031 37.974 102.366 10.599-19.132 11.879-32.939 13.056-52.941 33.758 40.994 68.761 95.829 61.201 146.023 0 0 84.104-59.801 89.907-137.148 7.543 15.941 17.596 71.134 10.035 87.535 22.699-16.401 149.334-172.032-24.269-269.363 32.649 62.959 8.431 147.951-48.231 187.204 3.772-16.862-0.921-60.945-26.010-88.576 5.666 28.603-8.534 56.832-8.534 56.832s-4.625-35.84-22.698-62.003c-16.47-23.877-27.904-49.221-6.469-93.457v0z" />
<glyph unicode="&#xe611;" d="M384.495 155.238l21.453-10.103c0 0-0.358-19.098-20.411-19.098h-10.786l10.257 20.565h-10.342l-11.315-20.565h-21.060l10.291 20.565h-10.377l-11.315-20.565h-20.429l10.308 20.565h-10.377l-11.298-20.565h-21.077l10.291 20.565h-10.342l-11.384-20.565h-20.429l10.309 20.565h-10.393l-11.281-20.565h-21.112l10.309 20.565h-10.376l-11.281-20.565h-20.446l10.309 20.565h-10.428l-11.264-20.565h-21.112l10.291 20.565h-10.393l-11.281-20.565h-10.974c0 0-3.754 0.103-8.004 1.604l8.517 18.961h-10.376l-7.117-12.493c-2.201 2.918-3.754 6.827-3.754 12.356v0.358l21.418 10.053v11.025l-21.418-11.025v19.473l21.418 10.053v11.059l-21.418-11.059v21.111l21.418 10.070v11.025l-21.418-11.025v21.077l21.418 10.070v11.025l-21.418-11.025v21.112l21.418 4.847-0.512 0.393 96.29-71.475c0 0 17.066-15.957 32.154-15.957 0 0 13.261-1.911 33.024 15.291l117.299 86.033v-9.113l-9.694 1.962-6.383-5.205 16.077-6.792v-21.112l-21.453 11.025v-11.025l21.453-10.070v-21.077l-21.453 11.025v-11.025l21.453-10.070v-21.111l-21.453 11.059v-11.059l21.453-10.053v-21.077l-21.453 11.025v-11.042h-0.017zM374.647 125.832h-11.384l0.068 0.205h11.418l-0.103-0.205zM342.17 125.832h-11.401l0.086 0.205h11.418l-0.103-0.205zM310.358 125.832h-11.384l0.086 0.205h11.366l-0.068-0.205zM277.897 125.832h-11.418l0.103 0.205h11.384l-0.068-0.205zM246.050 125.832h-11.367l0.085 0.205h11.383l-0.102-0.205zM213.589 125.832h-11.383l0.102 0.205h11.367l-0.085-0.205zM181.76 125.832h-11.35l0.085 0.205h11.367l-0.102-0.205zM149.282 125.832h-11.35l0.085 0.205h11.383l-0.119-0.205zM118.511 126.498l-5.017 4.079c1.792-1.331 3.669-2.253 5.529-2.952l-0.512-1.127zM112.453 131.413l1.024-0.837c-0.359 0.307-0.665 0.58-1.024 0.837v0zM109.773 133.632l0.273 0.461c0.734-1.024 1.553-1.911 2.424-2.68l-2.697 2.219zM106.291 290.577l11.298-8.38-11.298-2.355v10.735zM117.897 282.265l9.302-7.202-9.608 7.151 0.307 0.051zM235.862 207.855l-129.809 93.662c0 0-0.819 20.65 21.334 20.65h258.151c0 0 20.394-1.502 20.394-21.947l-127.897-92.365c0 0-19.729-20.77-42.172 0v0zM273.118 302.25l-54.101-0.068c-4.966 6.383-12.903 10.462-21.743 10.462-14.934 0-27.034-13.022-27.034-27.512 0-14.472 12.118-25.327 27.034-25.327 11.759 0 17.084 4.455 21.999 11.094l42.343-0.103c2.969 0 5.393 1.877 5.393 4.762s-2.423 5.957-5.393 5.957l-37.615 0.051c0.205 1.263 0.29 2.253 0.29 3.584 0 1.519-0.205 4.608-0.563 6.349l49.374 0.085c3.175 0 5.717 2.031 5.717 5.086 0.017 3.038-2.543 5.581-5.7 5.581v0zM197.189 271.121c-8.79 0-15.906 6.895-15.906 15.394 0 8.534 7.117 15.446 15.906 15.446 8.773 0 15.906-6.912 15.906-15.446 0-8.499-7.134-15.394-15.906-15.394v0z" />
<glyph unicode="&#xe612;" d="M359.51 82.995h-208.606c-19.183 0-34.765 15.803-34.765 35.192v202.070c0 19.387 15.582 35.157 34.765 35.157h208.623c19.132 0 34.765-15.752 34.765-35.157v-202.070c0-19.387-15.633-35.192-34.782-35.192v0zM366.063 311.279c0 8.823-7.099 16.009-15.855 16.009h-190.003c-8.738 0-15.838-7.185-15.838-16.009v-184.098c0-8.858 7.117-16.026 15.838-16.026h190.021c8.755 0 15.855 7.185 15.855 16.026v184.098h-0.017zM338.654 264.619h-132.113c-4.813 0-9.728 6.468-9.728 11.315 0 4.881 4.915 9.643 9.728 9.643h132.113c4.779 0 12.185-4.762 12.185-9.643 0-4.847-7.407-11.315-12.185-11.315v0zM338.654 208.76h-132.113c-4.813 0-9.728 7.117-9.728 11.964 0 4.881 3.891 8.806 8.704 8.806h136.584c4.813 0 8.721-3.925 8.721-8.806 0.017-4.847-7.39-11.964-12.168-11.964v0zM342.118 153.566h-136.584c-4.813 0-8.704 3.909-8.704 8.755s4.915 11.52 9.728 11.52h139.042c4.83 0 5.257-6.69 5.257-11.52s-3.925-8.755-8.738-8.755v0zM164.813 264.619v20.958h20.856v-20.958h-20.856zM164.813 208.76v20.941h20.856v-20.941h-20.856zM164.813 152.866v20.975h20.856v-20.975h-20.856z" />
<glyph unicode="&#xe613;" d="M126.413 242.995c-5.769-5.086-10.41-1.093-10.41-1.093l-31.675 48.333c-3.379 6.451-0.359 10.137-0.359 10.137l8.874 5.223 33.57-62.601zM103.305 311.706l54.238 31.761c8.773 8.823 33.843 10.837 33.843 10.837h20.941c-0.649-41.011 43.333-43.742 43.333-43.742 44.63 0 44.015 43.742 44.015 43.742h20.975c24.303 0 33.144-10.837 33.144-10.837l54.067-32-32.683-60.024-32.307 16.418-0.341-162.714c-39.953-12.219-86.87-11.435-86.87-11.435-47.36 0-85.93 11.435-85.93 11.435l-0.341 162.714-32.717-16.554-33.365 60.399zM386.253 242.21c0 0 5.563-4.898 10.154 0.341 2.594 3.141 22.528 35.909 31.13 50.142 4.027 6.827-0.325 7.373-0.325 7.373l-8.072 4.779-32.887-62.635z" />
<glyph unicode="&#xe614;" d="M363.759 187.409c0.426 5.274 11.742 12.51 11.742 17.817-0.034 5.546-9.899 14.865-9.147 20.394 0.58 4.369 8.875 10.888 9.113 15.291 0.478 8.005-10.615 23.723-18.262 26.743-12.083 4.813-73.659 2.543-73.659 2.543-6.041 10.309 10.701 35.687 15.309 46.626 6.759 16.094 5.615 37.376-2.935 48.333-10.445 13.363-29.594 14.233-30.003 8.294-2.85-43.435-11.35-55.466-22.75-64.034-6.844-5.154-12.817-9.694-15.975-17.494-19.387-48.315-35.055-63.812-42.565-65.485l-25.344-0.051v-103.97l77.977-10.171c0 0 71.424-6.639 93.901 0 7.065 2.048 19.286 12.425 22.17 19.080 1.656 3.806-0.649 12.851 1.314 16.572 2.885 5.445 15.002 12.288 15.002 19.712-0.017 5.342-6.332 14.524-5.888 19.798v0z" />
<glyph unicode="&#xe615;" d="M367.19 284.603v35.652h-259.447v-195.993c0-9.848 8.294-17.817 18.535-17.817h250.18c15.343 0 27.801 11.964 27.801 26.709v151.466l-37.069-0.017zM348.655 124.245h-222.379v178.176h222.379v-178.176zM144.776 266.803h185.344v-17.851h-185.344v17.851zM255.983 231.151h74.154v-17.8h-74.154v17.8zM255.983 195.515h74.154v-17.817h-74.154v17.817zM255.983 159.88h55.603v-17.834h-55.603v17.834zM144.776 231.151h92.689v-89.105h-92.689v89.105z" />
<glyph unicode="&#xe616;" d="M212.514 103.765c0-9.694-7.885-17.579-17.596-17.579h-25.702c-9.694 0-12.697 13.926-12.697 23.688v123.648c0 9.745 9.267 19.012 18.961 19.012h18.944c9.694 0 18.944-9.267 18.944-19.012l-0.853-129.758zM298.615 109.858c0-9.745-9.967-20.036-19.661-20.036h-28.16c-9.694 0-18.449 10.291-18.449 20.036v152.2c0 9.694 9.25 19.030 18.91 19.030h28.433c10.001-0.154 20.599-12.92 18.995-21.93l-0.068-149.299zM361.711 91.050h-29.372c-9.694 0-14.797 9.063-14.797 18.825v237.824c0 9.745 5.103 19.012 14.797 19.012h29.372c9.694 0 12.697-9.267 12.697-19.012v-237.824c0-9.762-2.986-18.825-12.697-18.825v0zM427.913 81.305h-343.842c-7.049 0-12.766 5.735-12.766 12.8 0 7.082 2.424 15.769 9.455 15.769h350.481c7.082 0 9.455-8.687 9.455-15.769-0.017-7.065-5.735-12.8-12.783-12.8v0z" />
<glyph unicode="&#xe617;" d="M378.026 182.306c-25.959-5.82-79.274-71.271-96.529-103.271-24.507 30.533-53.334 53.794-73.523 61.065l47.565 29.115 23.074-45.125c0 0 37.445 91.665 96.546 122.214-1.467-21.846-7.185-40.738 2.867-64v0zM340.565 323.959c0 5.103-3.959 9.267-8.926 9.267h-35.806v18.602h44.168c9.899 0 18.466-8.311 18.466-18.585v-88.542c-10.189-4.232-17.903-13.090-17.903-13.090v92.347zM313.702 323.959c4.95 0 8.96-4.165 8.96-9.301 0-5.154 0-18.603 0-18.603h-125.867c0 0 0 13.465 0 18.603s4.011 9.301 8.926 9.301h26.863c0 0 0.102 11.844 0.102 26.931 0 15.719 11.623 28.826 26.743 28.826 15.104 0 27.699-13.79 27.699-28.911 0-16.264-0.273-26.846-0.273-26.846h26.846zM259.464 351.829c-4.95 0-8.96-4.165-8.96-9.285s4.028-9.284 8.96-9.284 8.96 4.182 8.96 9.284c0.017 5.12-4.027 9.285-8.96 9.285v0zM178.893 323.959v-214.375c0-5.12 4.011-9.284 8.943-9.284h53.162c9.694-5.359 15.958-12.459 19.456-18.586h-81.561c-9.881 0-17.886 8.312-17.886 18.586v232.943c0 10.274 8.005 18.585 17.886 18.585h45.329v-18.585h-36.369c-4.95 0-8.96-4.165-8.96-9.285v0zM331.639 100.318c4.966 0 8.926 4.164 8.926 9.284v30.839c6.007 6.264 11.964 11.998 17.903 17.032v-57.156c0-10.291-8.567-18.586-18.466-18.586h-45.551c3.909 6.093 8.158 12.339 12.647 18.586h24.542z" />
<glyph unicode="&#xe618;" d="M380.502 203.623c0-68.267-55.33-123.614-123.597-123.614s-123.614 55.347-123.614 123.614c0 66.168 52.054 120.030 117.418 123.272v21.334h-9.267c-5.462 0-9.881 4.421-9.881 9.882 0 5.445 4.421 9.882 9.881 9.882h29.662c5.445 0 9.882-4.438 9.882-9.882 0-5.462-4.438-9.882-9.882-9.882h-10.513v-21.214c66.543-1.963 119.911-56.406 119.911-123.392v0zM250.709 288.904v22.562c-30.618-1.741-57.77-16.162-76.476-37.99l16.298-16.298-6.963-7.014-15.446 15.446c-12.561-17.698-20.019-39.27-20.019-62.618 0-1.075 0.154-2.474 0.154-2.474h23.962v-9.882h-23.262c2.423-20.241 10.428-39.305 22.323-54.528l12.271 12.271 6.963-6.998-12.766-12.766c18.5-19.644 44.185-32.461 72.96-34.099v26.863h9.882v-26.983c29.457 0.99 55.825 13.721 74.82 33.57l-14.012 14.029 6.963 6.998 13.568-13.585c12.237 15.377 20.446 34.714 22.853 55.228h-25.105v9.882h25.822c0.034 1.041 0.154 1.399 0.154 2.474 0 23.995-7.868 46.080-21.026 64.034l-16.264-16.231-6.963 7.014 16.964 16.982c-19.149 21.691-46.814 35.72-77.773 36.795v-22.681h-9.881zM261.205 200.534h34.611c2.714 0 4.933-2.236 4.933-4.95 0-2.782-2.219-4.933-4.933-4.933h-39.526c-2.748 0-4.966 2.151-4.966 4.933v68.574c0 2.782 2.202 4.983 4.966 4.983 2.697 0 4.933-2.202 4.933-4.983v-63.625h-0.017z" />
<glyph unicode="&#xe619;" d="M385.297 149.282l-69.666 65.724 65.741 69.701c3.294 3.481 3.14 9.011-0.358 12.305l-38.041 35.84c-3.464 3.277-8.977 3.14-12.288-0.358l-65.741-69.7-69.683 65.741c-3.482 3.311-8.977 3.14-12.305-0.358l-35.84-38.024c-3.277-3.498-3.141-8.994 0.358-12.322l69.666-65.69-65.724-69.717c-3.294-3.464-3.106-8.977 0.375-12.288l38.007-35.84c3.516-3.294 9.029-3.158 12.322 0.341l65.724 69.683 69.666-65.707c3.533-3.311 9.029-3.14 12.322 0.358l35.874 38.041c3.26 3.447 3.106 8.994-0.409 12.271v0z" />
<glyph unicode="&#xe61a;" d="M320.751 97.349h-131.277c-16.572 0-29.713 7.356-29.713 23.945v173.005c0 1.314 0.119 1.229 0.256 2.457h192c0.137-1.229 0.273-1.143 0.273-2.457v-172.988c-0.017-16.606-14.933-23.962-31.539-23.962v0zM211.286 277.487h-15.821v-156.706h15.821v156.706zM263.407 277.487h-15.838v-156.706h15.838v156.706zM315.478 277.487h-15.838v-156.706h15.838v156.706zM191.437 335.24h54.255l1.399 15.411h29.73l1.502-15.411h42.428c15.326 0 27.921-10.462 29.781-25.668h-188.843c1.861 15.19 14.489 25.668 29.747 25.668v0z" />
<glyph unicode="&#xe61b;" d="M258.031 371.815c-81.664 0-147.815-66.168-147.815-147.815s66.15-147.798 147.815-147.798c81.647 0 147.798 66.168 147.798 147.798s-66.151 147.815-147.798 147.815v0zM308.856 307.149c10.206 0 18.449-8.278 18.449-18.483s-8.243-18.466-18.449-18.466c-10.24 0-18.483 8.261-18.483 18.466s8.243 18.483 18.483 18.483v0zM207.224 307.149c10.206 0 18.483-8.278 18.483-18.483s-8.261-18.466-18.483-18.466-18.483 8.261-18.483 18.466c0 10.206 8.278 18.483 18.483 18.483v0zM183.672 156.007c8.345 14.865 20.121 27.375 34.117 36.010 14.387 8.977 30.857 13.738 47.582 13.738s33.178-4.745 47.582-13.738c14.012-8.653 25.753-21.146 34.116-36.010l2.338-4.181c0 0-29.354 34.526-84.036 34.526-57.566 0-84.002-34.526-84.002-34.526l2.304 4.182z" />
<glyph unicode="&#xe61c;" d="M256 373.334c-81.596 0-147.712-66.85-147.712-149.334 0-82.449 66.117-149.333 147.712-149.333 81.579 0 147.712 66.885 147.712 149.333 0 82.483-66.134 149.333-147.712 149.333v0zM302.166 306.398c7.219 0 13.073-11.81 13.073-26.402s-5.854-26.402-13.073-26.402-13.073 11.81-13.073 26.402 5.854 26.402 13.073 26.402v0zM209.851 306.398c7.185 0 13.039-11.81 13.039-26.402s-5.837-26.402-13.039-26.402c-7.219 0-13.073 11.81-13.073 26.402s5.854 26.402 13.073 26.402v0zM256 130.663c-48.162 0-88.115 40.789-92.331 92.842 27.050-15.803 58.897-24.798 92.331-24.798s65.28 8.977 92.296 24.764c-4.199-52.036-44.135-92.808-92.296-92.808v0z" />
<glyph unicode="&#xe61d;" d="M258.031 373.334c-81.544 0-147.661-66.833-147.661-149.334 0-82.466 66.117-149.333 147.661-149.333 81.527 0 147.661 66.867 147.661 149.333 0 82.501-66.134 149.333-147.661 149.333v0zM301.773 145.579h-98.85v19.917h98.85v-19.917zM308.787 308.002c10.223 0 18.449-8.363 18.449-18.688 0-10.309-8.226-18.654-18.449-18.654-10.206 0-18.449 8.345-18.449 18.654 0 10.325 8.243 18.688 18.449 18.688v0zM207.274 308.002c10.206 0 18.466-8.363 18.466-18.688 0-10.309-8.261-18.654-18.466-18.654s-18.466 8.345-18.466 18.654c0 10.325 8.261 18.688 18.466 18.688v0z" />
<glyph unicode="&#xe61e;" d="M113.784 379.597h283.87v-43.366h-283.87v43.366zM336.623 255.659c-21.231 20.787-50.296 35.959-82.825 35.959-32.239 0-59.017-13.483-78.233-33.144l-61.798 66.389h284.433l-61.577-69.206zM256.375 281.225c57.241 0 103.697-46.234 103.697-103.202 0-57.037-46.456-103.236-103.697-103.236-57.293 0-103.731 46.2-103.731 103.236 0 56.969 46.439 103.202 103.731 103.202v0zM226.594 168.397l-16.845-56.474 48.776 33.416 48.743-33.382-16.845 56.49 46.967 35.891-59.17 1.45-19.781 55.552-19.678-55.552-59.153-1.553 46.984-35.84z" />
<glyph unicode="&#xe61f;" d="M420.454 240.845c0-24.798-25.071-25.275-25.071-25.275l-220.211-31.71 5.274-18.074h198.776c7.202 0 15.479 3.891 15.479-19.2 0-19.865-8.277-18.363-15.479-18.363h-219.972c-7.185 0-12.988 5.717-12.988 12.783 0 5.632-33.331 204.766-33.331 204.766l-21.504-0.034c0 47.189 36.096 37.615 36.096 37.615 26.863 0 26.334-25.395 26.334-25.395l5.495-25.925 236.288 0.325c23.62 0 24.918-24.73 24.918-24.73l-0.103-66.782zM382.208 281.514c0 7.082-5.82 12.783-13.022 12.783h-188.347c-7.185 0-13.022-5.718-13.022-12.783l4.881-46.934c0-7.083 5.82-12.8 13.022-12.8l183.466 32.034c7.202 0 13.022 5.718 13.022 12.8v14.899zM199.134 115.422c14.609 0 26.453-10.837 26.453-25.19s-11.845-25.993-26.453-25.993c-14.592 0-25.651 11.623-25.651 25.993 0.017 14.353 11.077 25.19 25.651 25.19v0zM343.159 115.422c14.592 0 26.437-11.23 26.437-25.6s-11.827-25.993-26.437-25.993c-14.575 0-26.454 11.639-26.454 25.993s11.878 25.6 26.454 25.6v0z" />
<glyph unicode="&#xe620;" d="M384.358 75.52c0 0-11.025 0.717-11.025 12.613v-0.358l-234.701-0.392v0.751c0-11.896-11.025-12.613-11.025-12.613-15.394 0-12.442 11.861-12.442 11.861v190.072c0-6.69 23.467-11.896 23.467-11.896v-83.149l234.735-0.341v83.507c0 0 23.466 5.206 23.466 11.895v-190.088c0 0 2.935-11.861-12.476-11.861v0zM361.625 194.338h-211.268l12.101 24.081 187.426-0.358 11.742-23.723zM362.12 277.709c-35.209 0-34.969 35.413-34.969 35.413 0-35.635-35.909-35.635-35.909-35.635-35.976 0-35.976 34.867-35.976 34.867 0-35.635-33.724-34.867-33.724-34.867-36.677 0-35.942 35.635-35.942 35.635 0-35.635-35.226-35.635-35.226-35.635-37.393-0.768-34.953 35.618-34.953 35.618v11.861h281.43v-12.63c-0.017-35.635-34.731-34.628-34.731-34.628v0zM126.174 313.344c0 0 0.717-23.995 24.934-23.995 0 0 22.75 1.741 22.75 23.995h-47.684zM196.574 313.344c0 0 0.734-23.995 24.952-23.995 0 0 22.733 1.741 22.733 23.995h-47.685zM267.008 313.344c0 0 0.751-23.995 24.952-23.995 0 0 22.75 1.741 22.75 23.995h-47.702zM337.442 313.344c0 0 0.717-23.995 24.901-23.995 0 0 22.75 1.741 22.75 23.995h-47.65zM385.092 336.845h-258.202c-6.469 0-11.742 5.325-11.742 11.861l23.484 23.774h234.735c18.739-13.363 23.466-23.774 23.466-23.774 0-6.519-5.257-11.861-11.742-11.861v0z" />
<glyph unicode="&#xe621;" d="M106.001 72.517v281.327h23.62v-15.104h17.647v15.104h19.2v-15.104h17.63v15.104h23.518v-14.319h17.613v14.319h19.217v-15.104h17.647v15.104h24.712v-14.711h17.613v14.712h24.712v-15.104h17.596v15.104h19.61v-15.104h17.63v15.104h21.982v-281.327h-299.947zM129.963 119.842h253.253v19.917h-253.252v-19.917zM129.399 163.601h253.832v17.033h-253.833v-17.033zM383.215 198.247v19.32h-253.252v-19.32h253.252zM128.256 241.988h256.666v18.176h-256.666v-18.176zM386.185 298.394h-258.474v-19.2h258.457l0.017 19.2zM365.602 374.358h18.022v-17.988h-18.022v17.988zM328.772 375.501h18.398v-18.381h-18.398v18.381zM287.181 374.75h17.647v-17.63h-17.647v17.63zM244.856 374.358h17.647v-17.613h-17.647v17.613zM207.24 374.358h17.255v-17.238h-17.255v17.238zM165.666 374.358h17.255v-17.238h-17.255v17.238zM128.837 374.75h18.023v-17.988h-18.023v17.988z" />
<glyph unicode="&#xe622;" d="M321.519 142.114c-5.445-5.41-6.536-9.421-3.277-11.964 2.543-2.543 6.434-1.399 11.742 3.447 5.274 5.24 6.587 9.216 3.874 11.93-2.543 3.345-6.656 2.168-12.339-3.413zM440.269 198.673c-19.32 19.251-191.659 189.986-191.659 189.986l-150.477 1.263v-152.764l186.453-186.129c0 0 16.76-23.125 36.028-2.594 19.32 20.565 114.466 115.541 114.466 115.541s24.457 15.445 5.188 34.697zM331.947 211.541c8.123-8.226 7.373-17.084-2.253-26.555-9.608-9.489-18.449-10.087-26.59-1.826-8.106 8.175-7.373 17.084 2.253 26.505 9.625 9.455 18.449 10.070 26.59 1.877zM163.191 302.712c-10.291 0-18.619 8.312-18.619 18.586 0 10.223 8.328 18.551 18.619 18.551 10.257 0 18.602-8.329 18.602-18.551 0.017-10.274-8.345-18.586-18.602-18.586zM198.4 239.309c-10.821 11.367-12.015 21.607-3.567 30.703l11.008-11.144c-3.533-4.642-3.567-8.977-0.085-12.903 4.83-4.523 11.077-3.379 18.722 3.379 5.495 6.195 6.195 11.742 2.167 16.64-3.294 2.935-7.407 3.191-12.288 0.7l-10.718 11.452 32.017 28.672 31.3-31.744-7.322-7.236-21.743 22.050-14.405-13.056c5.052-0.034 9.523-2.031 13.431-5.939 9.847-10.786 9.096-21.982-2.304-33.57-11.81-9.677-23.842-8.994-36.215 1.997zM240.418 196.676c-11.196 11.742-8.278 26.454 8.79 44.032 18.398 17.425 33.417 20.429 45.005 9.029 11.81-12.339 8.875-27.579-8.772-45.773-17.647-17.015-32.632-19.439-45.022-7.288zM338.108 125.337c-9.25-9.063-17.903-9.506-26.010-1.28-8.295 8.431-7.851 17.221 1.349 26.3 9.575 9.506 18.568 10.001 26.88 1.604 8.089-8.277 7.322-17.186-2.219-26.624zM283.648 153.481l-5.495 5.563 86.341 28.877 5.512-5.581-86.358-28.86zM321.604 193.178c4.898 5.257 6.093 9.113 3.55 11.707-2.287 3.123-6.212 1.979-11.673-3.447-5.717-5.598-6.998-9.591-3.891-11.93 2.526-2.56 6.502-1.297 12.015 3.67zM286.89 241.92c-4.642 4.301-13.432 0.069-26.368-12.663-12.749-12.561-17.016-21.179-12.749-25.89 4.625-4.318 13.346-0.256 26.061 12.373 12.971 12.749 17.305 21.47 13.056 26.18z" />
<glyph unicode="&#xe623;" d="M256 381.866c-87.177 0-157.867-70.69-157.867-157.866 0-87.193 70.69-157.866 157.867-157.866 87.193 0 157.866 70.673 157.866 157.867 0 87.177-70.673 157.867-157.867 157.867zM256 101.342c-67.721 0-122.641 54.938-122.641 122.658s54.921 122.641 122.641 122.641c67.721 0 122.658-54.938 122.658-122.641 0-67.721-54.938-122.658-122.658-122.658zM234.018 166.776h31.675v-29.952h-31.675v29.952zM258.85 316.603c-35.959 1.143-57.651-14.848-65.075-47.958l26.538-8.55c3.994 21.674 16.264 31.949 36.83 30.805 14.814-1.143 23.108-8.55 24.815-22.272 1.724-11.981-5.137-23.109-20.531-33.383-17.118-11.981-25.395-26.539-24.832-43.674v-7.731h26.538v6.861c-1.144 9.711 3.993 18.262 15.428 25.685 22.255 15.411 33.075 32.529 32.529 51.37-2.85 30.873-20.293 47.138-52.241 48.845z" />
<glyph unicode="&#xe624;" d="M279.108 42.582c-18.808-5.034-49.032 0-49.032 0s-101.222 7.97-101.222 108.015c0 94.447 96.615 144.845 96.615 144.845h58.709c0 0 97.536-49.937 97.536-145.288 0-95.403-102.605-107.571-102.605-107.571v0zM293.427 218.897c0-1.024-4.881-11.401-14.626-31.113-9.762-19.729-14.643-33.399-14.643-41.063h-0.751c0 7.56-5.462 21.351-16.418 41.318-10.94 19.951-16.401 30.242-16.401 30.856h-25.873c0-0.7 3.72-6.895 11.144-18.671 9.131-14.37 16.231-26.419 21.316-36.113-5.581 0-14.233 0.103-25.976 0.358v-9.848h30.413c2.475-5.291 4.318-9.865 5.581-13.79h-35.993v-9.608c16.231 0.273 29.15 0.358 38.792 0.358 0-15.224-0.205-31.608-0.631-49.135h22.187c-0.58 14.695-0.887 31.096-0.887 49.135 11.213 0 24.389-0.12 39.424-0.358v9.608h-36.233c1.161 3.311 3.158 7.919 5.939 13.79h30.293v9.848c-10.547-0.29-19.098-0.461-25.617-0.649 4.898 9.267 12.083 21.351 21.555 36.164 7.458 11.725 11.144 18.022 11.144 18.875l-23.74 0.034zM284.638 302.933h-59.187v22.426h59.187v-22.426zM226.389 332.834l-30.532 73.865c0 0 18.040-14.934 29.115-14.934 11.111 0 30.071 15.411 30.071 15.411s17.544-15.411 28.638-15.411c11.127 0 30.123 15.906 30.123 15.906l-30.123-74.803-57.293-0.034z" />
<glyph unicode="&#xe625;" d="M88.474 71.919v33.075c0 38.007 30.856 68.779 68.95 68.779h197.188c38.058 0 68.933-30.788 68.933-68.779v-33.075h-335.070zM253.935 202.666c-47.975 0-86.887 38.827-86.887 86.699 0 47.906 38.895 86.715 86.887 86.715s86.887-38.81 86.887-86.715c0-47.872-38.946-86.699-86.887-86.699v0z" />
<glyph unicode="&#xe626;" d="M344.149 249.464c-4.284-3.909-25.413-7.851-27.887-6.042-2.509 1.792-16.827-11.4-15.786-17.135 1.075-5.734-3.209-17.494-3.209-17.494l-21.111-24.644-20.429 17.51c0 0-86.631-79.685-88.047-87.177-1.434-7.493-5.718-11.776-5.718-11.776l-58.010-43.639-6.041 6.417c0 0 38.639 56.815 40.431 59.341 1.792 2.491 14.678 6.075 14.678 6.075l87.33 86.067-18.961 21.435c0 0 17.903 18.568 20.036 21.095 2.15 2.491 20.736 2.133 20.736 2.133s12.885 5.718 18.62 17.152c2.168 21.060 6.469 23.586 6.469 23.586l86.954 86.767 54.050-52.839c0.034-0.017-79.786-82.875-84.105-86.835v0zM254.669 270.233c-4.864-0.955-20.394-3.857-20.394-3.857l-25.242-29.030 19.917-18.91-14.114-13.568-33.963 32.956c-119.398-6.315-95.147 90.59-95.147 90.59l43.691-38.741c55.33-10.684 49.511 49.886 49.511 49.886l-39.321 42.154c104.858 19.849 93.218-90.624 93.218-90.624l21.846-20.856zM365.824 59.050l-122.317 121.634 11.161 11.606 18.466-18.893 32.512 29.543-1.467 9.677 5.325 0.478 100.471-103.185c0 0 16.026-54.255-44.151-50.858v0z" />
<glyph unicode="&#xe627;" d="M429.995 177.664h-207.070c-5.888 0-10.684 4.813-10.684 10.701v148.941c0 5.888 4.796 10.666 10.684 10.666h207.087c5.888 0 10.649-4.779 10.649-10.666v-148.941c-0.017-5.888-4.762-10.701-10.666-10.701v0zM236.663 196.898h174.797c3.226 0 5.837 2.628 5.837 5.871s-2.594 5.854-5.837 5.854h-174.797c-3.208 0-5.854-2.611-5.854-5.854s2.645-5.871 5.854-5.871v0zM235.298 222.993h177.494c2.85 0 5.154 2.321 5.154 5.154s-2.304 5.137-5.154 5.137h-177.494c-2.85 0-5.154-2.321-5.154-5.137 0-2.85 2.321-5.154 5.154-5.154v0zM417.962 250.794c0 2.867-2.304 5.171-5.171 5.171h-176.128c-2.833 0-5.137-2.304-5.137-5.171 0-2.85 2.304-5.171 5.137-5.171h176.145c2.85 0.017 5.154 2.338 5.154 5.171v0zM413.832 326.69h-176.845c-3.397 0-6.195-2.782-6.195-6.213 0-3.379 2.782-6.161 6.195-6.161h176.845c3.413 0 6.178 2.782 6.178 6.161 0 3.447-2.765 6.213-6.178 6.213v0zM231.526 296.141c0-3.601 2.918-6.519 6.502-6.519h173.448c3.567 0 6.486 2.936 6.486 6.519s-2.918 6.537-6.486 6.537h-173.465c-3.584-0.017-6.486-2.952-6.486-6.537v0zM413.832 278.63h-176.845c-3.397 0-6.195-2.747-6.195-6.178 0-3.413 2.782-6.178 6.195-6.178h176.845c3.413 0 6.178 2.765 6.178 6.178s-2.765 6.178-6.178 6.178v0zM176.708 177.664h-47.463c-28.945-4.898-27.102-37.512-27.102-37.512-20.344-21.538-30.805 2.491-30.805 2.491v80.572l40.67 81.203c3.704 13.5 18.483 11.042 18.483 11.042h49.92c14.2 1.826 16.025-13.551 16.025-13.551s5.547-88.559 0-104.55c-5.564-15.974-19.729-19.695-19.729-19.695v0zM172.544 280.952c0 0-2.629 13.517-11.298 13.125-8.653-0.358-21.078-1.485-21.078-1.485l-47.411-71.373c0 0-3.038-6.007 2.27-10.137 5.273-4.147 7.902-0.768 7.902-0.768l11.707 13.893h57.959l-0.051 56.746zM173.312 209.238c-4.727 0.341-20.394-0.273-20.394-0.273l-1.57 0.273c0 0-3.447-8.431 6.298-10.308 9.728-1.877 15.343-0.325 15.343-0.325s5.018 10.36 0.325 10.632v0zM150.323 167.373c18.995 0 34.406-15.343 34.406-34.321 0-18.944-15.411-34.321-34.406-34.321-19.012 0-34.423 15.326-34.423 34.321 0.017 18.944 15.394 34.321 34.423 34.321v0zM349.832 142.661l-141.005-0.7-15.138 24.064 141.756 0.683 14.387-24.047zM395.896 167.373c18.995 0 34.389-15.343 34.389-34.321 0-18.944-15.377-34.321-34.389-34.321-18.978 0-34.389 15.326-34.389 34.321 0.017 18.944 15.411 34.321 34.389 34.321v0z" />
<glyph unicode="&#xe628;" d="M201.541 236.783c0 31.3 24.354 56.661 54.409 56.661s54.409-25.361 54.409-56.661c0-31.283-24.354-56.645-54.409-56.645s-54.409 25.361-54.409 56.644v0zM282.59 236.988c0 15.446-11.998 27.955-26.846 27.955-14.814 0-26.829-12.51-26.829-27.955 0-15.428 12.032-27.938 26.829-27.938 14.831 0 26.846 12.493 26.846 27.938v0zM390.639 237.585c0-36.232-13.295-69.137-34.986-93.969-0.426-0.649-0.666-1.349-1.229-1.911l-86.050-93.849c-0.632-1.314-1.314-2.646-2.389-3.755-4.113-4.284-10.223-5.103-15.207-2.628-1.638 0.683-3.174 1.707-4.488 3.072-0.256 0.29-0.341 0.615-0.563 0.887l-88.286 96.29c-0.717 0.734-1.109 1.673-1.638 2.526-21.333 24.764-34.423 57.43-34.423 93.355 0 77.431 60.28 140.185 134.622 140.185 28.024 0 54.033-8.909 75.571-24.166l-0.017-0.017c3.038-2.474 5.12-6.127 5.274-10.41l0.154-1.314c0.273-7.748-5.563-14.216-13.022-14.489-4.488-0.154-8.346 2.15-10.906 5.581l-0.392-0.41c-16.384 10.428-35.584 16.572-56.2 16.572-59.648 0-107.998-50.329-107.998-112.435 0-28.877 10.565-55.074 27.75-74.991 0.085-0.068 0.171-0.086 0.273-0.154l5.854-6.417c2.014-1.979 3.994-3.959 6.144-5.786l45.005-49.834c-0.051 0.017-0.119 0.034-0.171 0.051l22.596-24.644 22.596 24.627c-0.154-0.034-0.273-0.068-0.409-0.103l45.005 48.862c0.341 0.29 0.649 0.632 0.99 0.921l11.281 12.322c0.802 0.819 1.792 1.297 2.731 1.877 16.333 19.661 26.334 45.192 26.334 73.25 0 18.040-4.164 35.021-11.435 50.125l0.717 0.785c-2.663 2.458-4.386 5.957-4.505 9.933l-0.188 1.297c-0.256 7.765 5.581 14.233 13.039 14.506 6.724 0.222 12.237-4.847 13.414-11.52 9.591-19.217 15.155-41.029 15.155-64.222v0z" />
<glyph unicode="&#xe629;" d="M356.233 60.416h-200.311c-15.804 0-28.621 13.073-28.621 29.201v15.479h-0.017l-0.085 114.944h0.12v15.53c0 15.667 12.118 28.347 27.341 29.047h15.547v0.119h0.034v13.688h-0.069l-0.085 30.464c0 0.29 0.154 0.512 0.171 0.802 0.256 47.992 38.451 86.87 85.589 86.87 47.274 0 85.624-39.099 85.624-87.33 0-0.086-0.017-0.171-0.017-0.256h-1.007c0-0.034 0.017-0.085 0.017-0.103l0.154-0.58c0-8.055-6.417-14.592-14.336-14.592-7.885 0-14.302 6.537-14.302 14.592l-0.137 0.58c0 1.485 0.409 2.85 0.819 4.216-2.253 30.038-26.607 53.811-56.661 53.811-31.419 0-56.883-25.925-57.088-57.925h-0.205c0-0.034 0.017-0.085 0.017-0.103l0.102-44.237 157.508 0.068c15.291-0.017 27.733-12.407 28.433-27.87l0.086-147.507c-0.154-15.974-12.885-28.911-28.621-28.911v0zM356.233 89.617l-0.017 22.921-0.154-22.835-15.514-0.12 15.685 0.034zM356.113 235.537h-0.051l0.068-11.452-0.017 11.452zM327.629 235.196l12.817 0.325-155.392-0.051c-0.188-0.017-0.341-0.119-0.529-0.119-0.171 0-0.341 0.102-0.495 0.119h-9.148l9.643-0.256c-22.954 0-28.603-4.403-28.603-29.184l0.205 29.423h-0.325l0.085-145.954h28.365l-28.143 0.222-0.205 29.457c0-24.747 5.683-29.662 28.57-29.662l145.596 0.103c20.327 0.358 25.925 5.632 26.146 28.194l-0.086 91.323c-0.512 21.88-6.605 26.061-28.502 26.061v0z" />
<glyph unicode="&#xe62a;" d="M465.221 238.439c0 91.938-89.805 166.485-200.567 166.485s-200.567-74.53-200.567-166.485c0-91.955 89.787-166.486 200.55-166.486 11.964 0 23.688 0.87 35.055 2.543 21.145 3.089 118.528-45.056 109.517-27.563-4.864 9.506-20.207 60.091-7.475 70.024 39.082 30.361 63.488 73.558 63.488 121.481zM377.942 128.837c-10.786-8.397-7.424-41.575-1.28-48.197 15.667-16.964-54.101 22.801-82.227 16.452-9.541-2.151-19.575-2.151-29.764-2.151-94.037 0-170.257 63.283-170.257 141.312 0 78.063 76.219 141.329 170.257 141.329 94.055 0 170.257-63.283 170.257-141.329-0.034-40.653-23.825-81.596-56.986-107.418zM161.877 297.284h205.671v-23.415h-205.671v23.415zM161.877 247.433h205.671v-23.416h-205.671v23.416zM161.877 197.546h205.671v-23.416h-205.671v23.416z" />
<glyph unicode="&#xe62b;" d="M256 54.084c-92.655 0-167.782 76.083-167.782 169.933 0 93.815 75.127 169.899 167.782 169.899s167.765-76.083 167.765-169.899c0-93.849-75.111-169.933-167.766-169.933v0zM256 371.251c-80.298 0-145.408-65.928-145.408-147.234 0-81.339 65.109-147.268 145.408-147.268s145.425 65.928 145.425 147.268c0 81.305-65.127 147.234-145.425 147.234v0zM256 96.563c-69.495 0-125.832 57.071-125.832 127.454 0 70.366 56.337 127.42 125.832 127.42 69.478 0 125.832-57.054 125.832-127.42 0-70.383-56.354-127.454-125.832-127.454v0zM320.904 227.55l-33.775 5.837c-1.707 0.29-3.328 0.171-4.95-0.051-1.775 4.983-4.796 9.404-8.841 12.68 0.358 0.478 0.802 0.905 1.058 1.434l31.863 67.465c2.116 4.506 0.409 9.745-3.721 11.776l-2.526 1.246c-4.199 2.031-9.319 0.034-11.401-4.438l-31.88-67.498c-0.58-1.212-0.802-2.458-0.853-3.669-15.377-0.051-27.853-12.749-27.853-28.314 0-15.65 12.476-28.313 27.955-28.313 8.022 0 15.19 3.43 20.275 8.926 1.707-0.99 3.601-1.69 5.666-2.031l33.741-5.888c8.38-1.433 16.248 3.618 17.562 11.264l0.478 3.089c1.349 7.646-4.421 15.053-12.8 16.487v0zM318.276 206.575l-33.075 5.683c-2.304 0.392-3.857 2.577-3.481 4.898l0.478 2.799c0.392 2.321 2.56 3.891 4.83 3.464l33.092-5.683c2.304-0.358 3.806-2.594 3.43-4.898l-0.443-2.799c-0.375-2.304-2.543-3.84-4.83-3.464v0zM256 212.702c-6.178 0-11.178 5.034-11.178 11.315 0 6.246 5 11.298 11.178 11.298 6.161 0 11.178-5.052 11.178-11.298 0-6.281-5.017-11.315-11.178-11.315v0z" />
<glyph unicode="&#xe62c;" d="M337.579 164.010c-20.889-19.456 9.233-82.466-78.933-75.213-99.089-16.248-66.031 59.699-89.651 79.582-29.969 25.259-49.084 63.351-49.084 105.984 0 76.101 60.945 137.83 136.124 137.83s136.072-61.73 136.072-137.83c-0.017-45.159-23.688-81.715-54.528-110.353v0zM256.017 117.982c0.103-0.034 0.205-0.068 0.325-0.068 1.894 15.428 13.142 102.4 25.873 116.702 0 0-15.274-0.085-20.958 5.274h-7.833c0 0-5.359-7.27-18.346-5.274 0 0 20.685-90.914 20.906-116.633h0.034zM253.423 383.027c-59.306 0-107.332-48.674-107.332-108.663 0-36.454 21.538-64.273 44.953-88.457 30.345-31.437-1.587-70.724 46.575-69.598-0.563 8.346-5.512 72.534-28.723 136.84 0 0-3.038 18.978 15.702 10.598 0 0 4.796-7.373 10.479-7.97 5.683-0.563 9.984-1.997 15.702 5.308 5.7 7.287 12.288 1.297 13.090 0 0 0 8.123-10.053 20.941-5.308 4.95 5.257 7.851 7.97 7.851 7.97s12.118 6.349 13.073-5.29c0.955-11.674-33.673-118.801-28.808-143.070-1.433-0.034-2.782-0.188-4.403-0.086h4.403c0 0.051 0 0.051 0 0.086 42.154 0.853 22.784 54.818 42.154 73.046 26.078 24.542 41.608 50.961 41.608 85.913 0.017 60.024-48.008 108.68-107.264 108.68v0zM215.381 80.862h78.66c2.116 0 3.857-1.758 3.857-3.891v-10.837c0-2.134-1.741-3.857-3.857-3.857h-78.661c-2.133 0-3.857 1.724-3.857 3.857v10.837c0 2.151 1.724 3.891 3.857 3.891v0zM231.083 54.375h47.258c2.116 0 3.874-1.724 3.874-3.891v-10.837c0-2.134-1.758-3.857-3.874-3.857h-47.257c-2.133 0-3.874 1.724-3.874 3.857v10.837c0.017 2.168 1.741 3.891 3.874 3.891v0z" />
<glyph unicode="&#xe62d;" d="M402.825 193.622c-18.142 31.283-7.236 71.356 24.269 89.566l-33.877 58.573c-9.677-5.683-20.923-8.943-32.956-8.943-36.182 0-65.519 29.509-65.519 65.878h-67.755c0.102-11.23-2.714-22.631-8.738-33.007-18.073-31.283-58.299-41.915-89.787-23.774l-33.911-58.59c9.745-5.546 18.21-13.637 24.183-24.013 18.056-31.232 7.219-71.202-24.15-89.464l33.894-58.555c9.643 5.598 20.839 8.807 32.785 8.807 36.079 0 65.349-29.303 65.519-65.502h67.755c-0.017 11.127 2.799 22.375 8.721 32.666 18.056 31.232 58.163 41.899 89.702 23.825l33.843 58.607c-9.642 5.512-18.057 13.585-23.978 23.928v0zM260.813 156.962c-38.553 0-69.769 31.181-69.769 69.666s31.232 69.666 69.769 69.666c38.536 0 69.769-31.163 69.769-69.666 0-38.486-31.232-69.666-69.769-69.666v0z" />
<glyph unicode="&#xe62e;" d="M391.253 112.486h-15.906v-0.034l-209.681-0.086c-8.278 0-14.984 5.922-14.984 13.243s6.707 13.295 14.984 13.295l195.259 0.086c7.493 0 13.056 0.563 17.357 1.758l-82.142 97.826c-1.724 2.765-1.962 5.786-1.399 8.636l-18.262-14.968c-5.393-5.512-14.865-6.11-21.129-1.349-1.57 1.212-2.765 2.629-3.669 4.198-0.87-1.587-2.065-2.987-3.669-4.198-6.263-4.762-15.719-4.181-21.129 1.349l-10.018 8.209c-0.273-0.614-0.307-1.28-0.666-1.877l-93.389-111.241c-0.392-0.666-1.093-1.11-1.621-1.69v-0.239c0-5.223-3.465-9.625-8.414-11.793-12.1 3.089-21.009 12.68-21.573 24.252l-0.12 186.965c0.034 14.2 12.766 25.72 28.672 26.334l271.070 0.119c16.589-0.034 29.935-11.896 29.935-26.538v-13.278l0.154-175.343c-1.656-13.278-14.2-23.637-29.662-23.637v0zM121.088 324.625v-0.034l7.254 0.034h-7.254zM134.758 323.192c-10.803-2.731-13.329-9.677-13.329-24.952l-0.325 11.742 0.069-140.51 68.745 81.851c1.621 2.611 4.165 4.335 7.014 5.495l-61.406 50.329c-4.523 4.642-4.506 11.195-0.768 16.042v0zM158.054 324.642c0.051-0.034 0.137-0.051 0.188-0.119l91.341-74.872c1.007-1.007 1.536-2.167 2.099-3.311 0.597 1.143 1.126 2.287 2.099 3.311l91.358 74.872c0.103 0.102 0.239 0.136 0.307 0.205l-187.392-0.085zM390.793 324.745l-23.569-0.017c0-0.017 0.034-0.017 0.034-0.017l23.535-0.137v0.171zM390.793 312.217l-0.358-13.977c0 19.081-3.891 25.207-22.971 26.283 4.881-4.898 5.308-12.271 0.341-17.357l-59.767-48.998c5.735 0.375 11.452-2.099 14.387-6.827l68.505-81.578-0.137 142.455z" />
<glyph unicode="&#xe62f;" d="M326.041 46.985h-140.066c-19.353 0-35.038 16.691-35.038 36.028v267.878c0 19.37 15.685 35.072 35.038 35.072h109.909v-35.072h-121.583v-233.762h163.414v233.762h-20.087v35.072h8.397c19.337 0 35.021-15.702 35.021-35.072v-268.834c0-19.37-15.685-35.072-35.004-35.072v0zM232.653 362.599h46.694v11.673h-46.695v-11.673zM256 93.747c-6.451 0-11.673-5.24-11.673-11.707s5.222-11.69 11.673-11.69 11.673 5.223 11.673 11.69-5.223 11.707-11.673 11.707v0z" />
<glyph unicode="&#xe630;" d="M228.506 87.023h53.897c-1.024 31.096-1.639 64.546-1.639 101.445 27.767 0 60.262-0.358 97.467-0.955v23.382h-89.6c2.867 8.089 7.834 19.303 14.678 33.605h74.923v23.995c-26.129-0.614-47.224-1.143-63.317-1.536 12.135 22.613 29.901 52.002 53.265 88.149 1.45 2.202 2.474 3.857 3.755 5.888h-52.463c-23.877-49.579-54.716-119.535-54.716-135.799h-1.877c0.034 16.709-38.434 86.545-65.809 135.8h-55.057c1.109-1.758 2.117-3.328 3.345-5.274 22.562-35.072 40.107-64.461 52.65-88.132-13.773 0-35.209 0.307-64.256 0.921v-23.995h75.213c6.059-12.851 10.632-24.081 13.773-33.605h-88.969v-23.382c40.141 0.58 72.073 0.955 95.915 0.955 0-31.727-0.41-65.707-1.178-101.462z" />
<glyph unicode="&#xe631;" d="M238.984 102.281h33.331c-0.632 19.217-1.024 39.902-1.024 62.72 17.169 0 37.274-0.222 60.296-0.58v14.473h-55.433c1.775 5 4.83 11.93 9.096 20.787h46.336v14.831c-16.162-0.358-29.201-0.7-39.168-0.955 7.493 13.977 18.5 32.171 32.938 54.511 0.904 1.365 1.536 2.389 2.338 3.635h-32.461c-14.762-30.669-33.826-73.933-33.826-83.968h-1.161c0.017 10.308-23.757 53.504-40.687 83.968h-34.048c0.7-1.075 1.314-2.065 2.082-3.26 13.944-21.691 24.798-39.851 32.563-54.494-8.517 0-21.76 0.205-39.731 0.563v-14.831h46.524c3.738-7.953 6.571-14.899 8.517-20.787h-55.040v-14.473c24.815 0.358 44.561 0.58 59.323 0.58-0.034-19.593-0.29-40.601-0.768-62.72zM117.334 363.707v-293.205h277.334v293.205h-277.334zM353.075 345.327c7.68 0 13.892-6.161 13.892-13.755 0-7.612-6.212-13.773-13.892-13.773s-13.892 6.161-13.892 13.773c0 7.594 6.212 13.755 13.892 13.755zM288.358 345.327c7.663 0 13.892-6.161 13.892-13.755 0-7.612-6.229-13.773-13.892-13.773-7.646 0-13.875 6.161-13.875 13.773 0 7.594 6.229 13.755 13.875 13.755zM223.659 345.327c7.68 0 13.893-6.161 13.893-13.755 0-7.612-6.213-13.773-13.893-13.773s-13.893 6.161-13.893 13.773c0 7.594 6.213 13.755 13.893 13.755zM158.942 345.327c7.68 0 13.875-6.161 13.875-13.755 0-7.612-6.213-13.773-13.875-13.773s-13.875 6.161-13.875 13.773c0 7.594 6.213 13.755 13.875 13.755zM376.183 93.15h-240.367v188.091h240.35v-188.091z" />
<glyph unicode="&#xe632;" d="M428.118 121.361h-334.25v189.065h334.2v-189.065h0.051zM407.159 290.116h-292.403v-147.746h292.438l-0.034 147.746zM375.842 158.157c0-1.894 0.443-3.618 1.058-5.257h-115.934c28.842 0 52.224 28.245 52.224 63.010 0 34.816-23.382 63.027-52.224 63.027h115.934c-0.598-1.673-1.058-3.362-1.058-5.239 0-8.721 6.998-15.769 15.667-15.769 1.826 0 3.584 0.478 5.24 1.092v-86.187c-1.69 0.615-3.397 1.058-5.24 1.058-8.653-0.017-15.667-7.065-15.667-15.736v0zM354.969 237.807c-8.653 0-15.667-9.421-15.667-20.992 0-11.639 7.014-21.043 15.667-21.043 8.67 0 15.667 9.404 15.667 21.043 0 11.571-6.998 20.992-15.667 20.992v0zM208.743 215.911c0-34.816 23.381-63.010 52.207-63.010h-115.917c0.597 1.639 1.058 3.345 1.058 5.223 0 8.687-6.998 15.769-15.65 15.769-1.861 0-3.601-0.426-5.239-1.058v86.153c1.638-0.581 3.397-1.075 5.239-1.075 8.653 0 15.65 7.083 15.65 15.769 0 1.861-0.444 3.584-1.058 5.24h115.934c-28.809 0-52.224-28.194-52.224-63.010v0zM166.963 237.807c-8.653 0-15.667-9.421-15.667-20.992 0-11.639 7.014-21.043 15.667-21.043s15.684 9.404 15.684 21.043c0 11.571-7.031 20.992-15.685 20.992v0zM294.673 241.288c5.41 8.653 8.141 13.295 8.141 13.91h-17.374c0-0.751-3.567-8.414-10.701-22.938-7.151-14.523-10.718-24.61-10.718-30.328h-0.563c0 5.632-4.010 15.769-12.049 30.498-8.005 14.762-12.015 22.34-12.015 22.767h-18.944c0-0.478 2.731-5.086 8.175-13.738 6.69-10.649 11.895-19.541 15.599-26.692-4.079 0-10.428 0.103-19.030 0.307v-7.305h22.272c1.775-3.857 3.157-7.288 4.079-10.137h-26.351v-7.065c11.879 0.188 21.351 0.273 28.416 0.273 0-11.23-0.154-23.33-0.461-36.284h16.264c-0.409 10.889-0.649 22.989-0.649 36.284 8.209 0 17.851-0.086 28.86-0.273v7.031h-26.573c0.87 2.457 2.338 5.854 4.352 10.171h22.204v7.288c-7.731-0.205-13.995-0.375-18.774-0.461 3.618 6.861 8.858 15.719 15.838 26.692v0z" />
<glyph unicode="&#xe633;" d="M404.019 75.127c0-8.209-6.639-14.848-14.831-14.848s-14.831 6.639-14.831 14.848l-0.017 0.188h-0.426c-7.031 57.583-55.108 102.366-114.091 104.226-1.263-0.051-2.509-0.205-3.806-0.205s-2.509 0.137-3.806 0.188c-58.948-1.877-107.025-46.626-114.073-104.209h-0.375l0.017-0.188c0-8.209-6.656-14.848-14.848-14.848-8.175 0-14.831 6.639-14.831 14.848l-0.136 1.382c0 2.185 0.546 4.25 1.4 6.127 7.646 51.695 41.541 94.839 87.978 114.841-27.409 18.757-45.431 50.279-45.431 86.050 0 57.549 46.592 104.175 104.107 104.175 57.481 0 104.089-46.643 104.089-104.175 0-35.738-17.988-67.26-45.38-86.033 47.224-20.31 81.51-64.512 88.44-117.317 0.325-1.212 0.734-2.389 0.734-3.687l0.12-1.365zM330.325 283.512c0 41.096-33.28 74.411-74.343 74.411-41.046 0-74.343-33.314-74.343-74.411s33.297-74.411 74.343-74.411c41.062 0 74.343 33.314 74.343 74.411v0z" />
<glyph unicode="&#xe634;" d="M410.675 290.253l-173.671-171.469c-4.369-4.301-11.486-4.301-15.821 0l-3.499 3.464h-0.051l-3.789 3.772-16.35 16.179c-0.119 0.051-0.119 0.239-0.29 0.307l-75.076 74.718c-4.369 4.301-4.369 11.264 0 15.599l23.671 23.399c4.335 4.318 11.469 4.318 15.769 0l67.584-67.209 142.046 140.237c4.301 4.301 11.435 4.301 15.769 0l23.688-23.416c4.386-4.301 4.386-11.298 0.017-15.582v0z" />
<glyph unicode="&#xe635;" d="M418.134 141.534l0.512 163.909-296.055-0.171-0.017 18.808h314.573v-182.545h-19.012zM408.49 112.709l-19.029 0.034 0.529 163.891-296.055-0.205v18.825h314.538v-182.545h0.017zM380.485 93.509h-305.647v172.885h305.613v-172.902h0.034zM361.336 247.808h-267.401v-135.117h267.418v135.117h-0.017zM332.697 127.13c0-1.724 0.392-3.294 0.955-4.796h-106.018c26.368 0 47.752 25.822 47.752 57.634 0 31.829-21.385 57.634-47.752 57.634h106.018c-0.546-1.536-0.955-3.089-0.955-4.796 0-7.97 6.4-14.421 14.319-14.421 1.69 0 3.277 0.443 4.779 0.99v-78.797c-1.536 0.546-3.106 0.955-4.779 0.955-7.919 0-14.319-6.451-14.319-14.404v0zM313.6 199.987c-7.919 0-14.336-8.618-14.336-19.2 0-10.649 6.417-19.251 14.336-19.251s14.319 8.601 14.319 19.251c0 10.582-6.4 19.2-14.319 19.2v0zM179.882 179.968c0-31.829 21.385-57.634 47.736-57.634h-106.001c0.546 1.502 0.956 3.072 0.956 4.779 0 7.936-6.4 14.421-14.302 14.421-1.707 0-3.294-0.409-4.796-0.973v78.797c1.502-0.529 3.106-0.99 4.796-0.99 7.902 0 14.302 6.469 14.302 14.422 0 1.707-0.409 3.277-0.956 4.796h106.018c-26.351 0-47.752-25.787-47.752-57.617v0zM141.688 199.987c-7.919 0-14.336-8.618-14.336-19.2 0-10.649 6.417-19.251 14.336-19.251 7.902 0 14.336 8.601 14.336 19.251 0 10.582-6.434 19.2-14.336 19.2v0zM258.44 203.161c4.983 7.919 7.458 12.168 7.458 12.731h-15.872c0-0.7-3.277-7.697-9.797-20.975-6.554-13.295-9.814-22.528-9.814-27.733h-0.512c0 5.137-3.669 14.421-11.008 27.887-7.321 13.483-10.991 20.429-10.991 20.822h-17.322c0-0.443 2.492-4.642 7.475-12.561 6.11-9.728 10.871-17.869 14.268-24.406-3.738 0-9.541 0.086-17.408 0.273v-6.656h20.361c1.638-3.55 2.885-6.673 3.738-9.284h-24.098v-6.469c10.855 0.171 19.524 0.256 25.976 0.256 0-10.291-0.137-21.351-0.427-33.178h14.865c-0.393 9.95-0.597 21.009-0.597 33.178 7.526 0 16.333-0.086 26.402-0.256v6.451h-24.286c0.785 2.236 2.133 5.342 3.976 9.284h20.293v6.656c-7.065-0.188-12.8-0.341-17.152-0.409 3.311 6.264 8.124 14.37 14.473 24.389v0z" />
<glyph unicode="&#xe636;" d="M318.856 114.654c0 0-2.594-15.497 1.382-21.163 0 0 11.52 1.178 18.841 21.163h-20.224zM396.185 145.152c0 0-43.503-2.065-69.137 16.486-54.528 4.694-106.087-35.959-113.391-48.401h167.014c0 0 3.328 0.12 7.117 5.666 3.038 4.471 6.298 12.322 8.397 26.248zM421.103 297.779c-0.717 11.861-12.954 11.913-12.954 11.913h-274.551l-3.976 24.593c0 0 20.753 5.854 39.816 13.039 1.212 0.461 4.165 2.697 4.421 4.216 3.072 8.431-2.543 13.465-4.608 14.882-3.499 2.389-10.274 0.325-10.274 0.325l-40.67-14.029c0 0-29.986 13.346-43.025 16.094-13.841 0.461-12.919-17.391-8.874-18.534 3.909-3.26 41.575-16.623 41.575-16.623s27.887-158.754 33.724-197.017c2.885-18.415 13.431-17.937 16.862-17.869 9.369 0.171 28.553 0.137 41.096-0.222-8.943-18.808-1.417-24.918-1.417-24.918s17.63 4.233 18.569 26.777c60.45 57.617 111.189 44.92 111.189 44.92s-0.717 2.406 2.338 6.469c27.153-15.599 49.647-13.056 59.631-12.817 7.629 0.188 8.789 8.226 8.789 8.226s23.040 118.699 22.341 130.577zM349.389 197.308c-5.051 0-9.13 4.079-9.13 9.13 0 5.086 4.079 9.165 9.13 9.165 5.086 0 9.147-4.079 9.147-9.165 0-5.051-4.062-9.13-9.147-9.13zM349.389 201.438c-2.765 0-5 2.236-5 5 0 2.782 2.236 5 5 5s5-2.219 5-5c0-2.765-2.236-5-5-5zM354.389 206.438c0-2.762-2.239-5-5-5s-5 2.239-5 5c0 2.762 2.239 5 5 5s5-2.239 5-5z" />
<glyph unicode="&#xe637;" d="M381.849 265.233h-55.296c-18.313 0-33.178 15.121-33.178 33.741v56.184c0 18.637 14.848 33.741 33.178 33.741h55.296c18.346 0 33.212-15.087 33.212-33.741v-56.201c-0.034-18.62-14.865-33.724-33.212-33.724v0zM354.031 344.627c-9.472 0-17.084-7.8-17.084-17.391 0-9.608 7.611-17.408 17.084-17.408s17.135 7.8 17.135 17.408c0 9.591-7.663 17.391-17.135 17.391v0zM392.909 254.327c0-12.407-9.882-22.818-22.118-22.818h-111.291c12.425 0 11.93 14.080 11.93 14.080l0.495 17.511c0 11.981-12.527 13.482-12.527 13.482l-42.769 0.154c-12.441 0-12.032-10.599-12.032-10.599l0.051-22.784c0-10.565 11.298-11.827 11.298-11.827h-99.567c-12.203 0-22.118 10.053-22.118 22.494v11.213l44.647-0.341c0 0 12.203 10.547 12.083 22.801h130.663c0-35.123 33.861-33.741 33.861-33.741l77.397 0.375zM127.454 276.463h-33.212c-6.093 0-11.059 5.035-11.059 11.247s4.966 11.247 11.059 11.247h33.194c6.076 0 11.042-5.034 11.042-11.247 0.017-6.213-4.95-11.247-11.025-11.247v0zM215.928 254.003c0 6.178 4.966 11.213 11.042 11.213h22.136c6.11 0 11.077-5.035 11.077-11.213 0-6.213-4.95-10.923-11.077-10.923h-22.136c-6.076 0-11.042 4.727-11.042 10.923v0zM303.394 159.147c0-33.962-27.119-61.508-60.501-61.508-33.417 0-60.501 27.529-60.501 61.509 0 33.911 27.085 61.133 60.501 61.133 33.383 0 60.501-27.221 60.501-61.133v0zM243.251 211.115c-27.682 0-50.142-22.801-50.142-50.927s22.459-50.927 50.142-50.927c27.682 0 50.125 22.767 50.125 50.927-0.017 28.126-22.442 50.927-50.125 50.927v0zM243.251 130.663c-15.292 0-27.648 12.595-27.648 28.109 0 15.497 12.357 28.109 27.648 28.109 15.258 0 27.648-12.613 27.648-28.109 0.034-15.497-12.39-28.109-27.648-28.109v0zM105.302 220.279h99.567c0 0-33.894-9.165-33.894-56.918 0-47.786 30.771-77.995 67.413-77.995 36.659 0 77.824 16.52 77.824 77.995 0 0 1.349 38.622-33.195 56.918h98.833c6.127 0 11.059-5.034 11.059-11.247v-123.682c0-6.195-4.933-11.247-11.059-11.247h-276.548c-6.11 0-11.076 5.051-11.076 11.247v123.682c0.017 6.195 4.984 11.247 11.076 11.247v0z" />
<glyph unicode="&#xe638;" d="M341.197 91.87v181.674h41.13v-181.691l-41.13 0.017zM341.197 356.113h41.13v-74.001h-41.13v74.001zM118.050 273.544h214.869v-181.691h-214.869v181.691zM225.843 107.896c41.199 0 74.564 33.365 74.564 74.479 0 41.199-33.365 74.565-74.565 74.565-41.182 0-74.565-33.365-74.565-74.565 0-41.113 33.382-74.479 74.565-74.479v0zM225.843 249.173c36.915 0 66.833-29.884 66.833-66.799 0-36.83-29.918-66.731-66.833-66.731-36.898 0-66.816 29.901-66.816 66.731 0 36.915 29.918 66.799 66.816 66.799v0zM225.843 131.14c25.617 0 46.711 18.808 50.535 43.315h-26.112v16.521h26.078c-4.13 24.269-25.037 42.769-50.5 42.769-28.347 0-51.353-22.954-51.353-51.32 0.017-28.33 23.023-51.286 51.353-51.286v0zM118.050 356.113h214.869v-74.001h-214.869v74.001zM196.574 306.245c6.844 0 12.407 5.546 12.407 12.424 0 6.81-5.53 12.408-12.407 12.408-6.827 0-12.407-5.581-12.407-12.408 0-6.878 5.581-12.424 12.407-12.424v0zM146.978 306.245c6.878 0 12.424 5.546 12.424 12.424 0 6.81-5.564 12.408-12.424 12.408s-12.407-5.581-12.407-12.408c0-6.878 5.547-12.424 12.407-12.424v0z" />
<glyph unicode="&#xe639;" d="M427.161 106.001h-342.647c-22.87 0-22.238 24.576-22.238 24.576l0.342 24.627h36.062v172.237c0 24.593 23.023 24.883 23.023 24.883l269.978-0.307c21.197 0 22.358-23.552 22.358-23.552v-172.988h35.721v-24.883c0-0.017-0.751-24.593-22.596-24.593v0zM221.474 117.913h81.135c6.673 0 9.046 2.44 9.046 6.417 0 3.959-2.014 7.185-8.687 7.185h-81.493c-6.725 0-8.363-3.209-8.363-7.185s1.638-6.417 8.363-6.417v0zM389.769 327.441h-267.195v-159.949h267.195v159.949zM431.582 123.665h-26.231c-3.601 0-6.519-3.397-6.519-7.031 0-3.652 2.918-6.639 6.519-6.639h26.231c3.618 0 6.536 3.003 6.536 6.639s-2.952 7.031-6.536 7.031v0z" />
<glyph unicode="&#xe63a;" d="M309.009 283.443c-57.651 0-104.38-46.575-104.38-104.055 0-57.447 46.728-104.055 104.38-104.055 57.668 0 104.414 46.592 104.414 104.055 0.017 57.481-46.745 104.055-104.414 104.055zM309.692 143.445c-19.098 0-34.629 15.445-34.629 34.526s15.514 34.509 34.629 34.509c19.166 0 34.663-15.428 34.663-34.509-0.017-19.063-15.479-34.526-34.663-34.526zM202.428 221.645h-45.363v-45.875h36.864c0.495-33.673 14.728-63.966 37.462-85.606h-56.201c-36.983 0-67.004-7.185-67.004 29.798v185.788c0 36.933 30.003 66.885 67.004 66.885h115.405c37.017 0 48.367-7.646 48.367-44.613v-35.704c-7.8 1.485-15.889 2.27-24.2 2.27-50.978 0.017-94.515-29.372-112.333-72.943v0z" />
<glyph unicode="&#xe63b;" d="M31.813 320.631v-43.827l80.128-30.208v-147.029c110.182-17.050 251.034-17.425 358.776 0 0 82.022 0 164.045 0 246.050-146.756 36.608-314.505 27.631-438.904-24.986v0 0zM230.639 232.738l39.014-13.995v-8.841h-39.014v22.835zM330.342 179.695h27.085v-19.917h-27.085v19.917zM232.601 179.695h27.050v-19.917h-27.050v19.917zM231.816 249.327c1.655 6.775 4.591 13.295 9.199 19.541 5.683 7.68 13.807 14.745 25.225 21.026l1.673 0.904c18.279 0 36.625 0 54.954 0l1.622-0.904c11.418-6.298 19.575-13.346 25.259-21.026 4.608-6.178 7.475-12.697 9.165-19.456 7.236-1.536 13.312-8.209 13.312-15.975v-28.706c0-8.909-7.288-16.214-16.111-16.214h-120.866c-8.857 0-16.094 7.271-16.094 16.214v28.706c-0.102 7.749 5.41 14.285 12.663 15.889v0 0zM256.955 255.386l16.435 26.385h18.893l-16.503-26.385h-18.825zM359.919 232.738v-22.801h-38.981v8.824l38.981 13.977zM168.175 308.6h251.835v-164.301h-251.835v164.301z" />
<glyph unicode="&#xe63c;" d="M278.664 306.552c14.95 4.539 43.264 13.943 44.8 57.002 22.425-7.629 37.632-32.119 37.632-57.258 0 0-50.5 0.103-82.432 0.256v0zM243.303 306.774c-11.759 0-108.356-0.256-108.356-0.256-1.775 5.427-2.731 10.837-2.731 16.845 0 30.515 24.763 52.667 55.262 52.667s58.811-22.169 58.811-52.667c-0.017-6.298-1.058-10.974-2.987-16.589v0zM255.215 312.935c6.742 25.293-0.478 67.942-48.52 73.113 7.919 19.678 27.187 27.478 49.698 27.478 29.594 0 53.538-17.886 53.538-47.463 0-29.542-25.156-53.128-54.715-53.128v0zM250.931 34.474l-132.181 262.434h263.168l-130.987-262.434z" />
<glyph unicode="&#xe63d;" d="M399.514 48.452c-4.539-4.505-21.368-11.435-24.849-15.326-7.663-8.482-1.467-13.090-16.333-13.363l-95.283-2.048c-17.954-0.375-41.694 1.365-57.77 1.024-4.83-0.086-10.752-3.857-14.25-3.635-6.707 0.392-7.219 3.038-7.936 10.649-0.239 2.509-2.065 5.581-2.065 9.319 0 5.188 13.756 7.936 9.711 9.575-14.114 5.752-41.541 18.944-49.528 32.87-12.697 21.93 5.359 36.728 13.994 39.082 5.939 1.656 11.213-3.123 17.8-4.147 16.845-2.594 33.69-9.899 41.984-17.562 3.106-2.885 9.541-4.13 11.639-2.236 2.765 2.491-0.393 8.567 1.724 15.274 2.748 8.601 7.287 16.896 11.639 21.111 20.907 20.275-17.494 77.073-34.117 88.183-14.899 9.933-48.298 36.301-62.225 57.275-2.287 3.431-8.328 5.888-9.148 8.96-2.355 3.84-2.611-1.724-5.871 3.226-4.045 6.212-6.998 16.52-13.517 26.812-7.936 12.544-14.131 31.215-20.753 49.032-2.287 0-2.355 5.291-2.355 8.141 0 5.649 1.724 7.253 3.072 11.383 3.516 10.82 10.308 21.265 17.767 28.74 1.519 1.519 7.697 14.166 7.766 7.766 0.7 0 4.113 1.382 5.495 1.382 1.689 0.751 14.149 4.010 19.217 1.758 4.181-1.861 19.695-3.533 24.832-3.533 3.464 0 8.226-5.342 14.319-8.567 15.599-8.226 47.958-26.299 55.381-33.689 22.801-22.835 35.925-37.257 50.381-55.655 3.533-4.471 6.007-9.575 9.762-14.029 3.789-4.454 8.909-8.175 12.442-15.291 1.127-2.27 0.409-6.639 4.062-14.285 1.809-3.84 7.014-9.080 9.25-13.756 5.274-11.008 11.742-31.317 14.558-54.579 2.338-19.524-6.793-46.012-7.611-68.438-0.341-10.171 7.526-18.722 7.526-26.812-0.034-2.748 0.034-5.274 0.12-7.577 0.461-10.035 2.116-15.957 6.383-15.207 23.62 4.233 77.278 30.72 83.353-1.467 5.342-28.365-13.107-22.835-30.567-40.363v0zM266.154 304.776c-1.979 1.963-2.885 5.786-4.847 8.363-13.637 18.005-26.88 38.673-43.554 50.858-9.677 7.082-19.524 29.082-34.509 29.082-3.942 0-15.411 13.278-18.517 10.171-1.365-1.416-15.616-6.144-26.232-8.362-6.178-1.263-11.434-3.038-11.434 0.717 0 6.605 16.077 6.349 16.077 10.291 0 1.246-0.41 3.84-1.161 4.267-3.106 1.707-11.656-3.379-18.791-8.517-3.021-2.218-5.41-3.021-6.981-4.198-4.352-3.209-5.086-6.725-2.253-5.137 1.724 0.973 7.237 7.885 9.95 7.885 2.629 0-1.024-7.458-2.748-9.216-0.904-0.922-1.894-5.495-3.294-8.073-1.144-2.15-3.106-6.315-5.222-8.687-1.877-2.134-3.96-2.526-4.71-4.284-1.314-3.175 1.553-5.257 2.15-6.434 12.51-25.327 25.088-48.197 41.95-66.628 4.232-4.574 11.025-7.151 15.786-11.144 12.22-10.206 24.696-23.16 42.343-28.979 9.608-3.174 18.296-5.189 19.712-4.062 0.87 0.717 3.208 3.601 0.375 5.256-2.816 1.656-10.701 2.117-16.657 2.117-29.73 0-48.333 39.099-38.4 62.43 4.386 10.223 15.599 18.193 31.437 18.193 28.655 0 40.278-18.073 46.422-37.512 0.751-2.423-0.273-9.916 0.785-13.637 1.963-7.151 7.065-9.575 14.285-9.575 1.502 0 3.755-2.219 4.335-0.973 2.577 5.376-3.43 22.904-6.298 25.788v0zM321.45 201.933l-48.691-19.286c-8.721-3.652-18.858-7.305-26.163-11.998l-5.12-4.233c-2.065 5.205-3.925 10.445-7.39 15.428-2.731 3.909-7.304 7.458-7.646 11.981-0.034 0.325-0.034 0.615-0.034 0.938-1.28 2.065-2.253 4.488-2.901 5.563-6.878 10.496-2.287 31.59 2.748 41.882 3.43 6.878 8.005 18.108 6.178 2.065-1.178-9.847-0.102-20.19 2.679-29.269 16.111 10.496 49.221 0.205 52.787 1.246 2.628 0.802 5.291 0.921 7.014 2.867 6.332 7.014 7.783 20.685 12.493 28.962-18.193 14.336-35.874 19.269-35.874 30.822 0 0.409 1.127 1.382 1.57 0.409 3.003-8.909 18.296-11.656 26.078-15.087l17.613-7.782c0.632-0.154 1.587-0.785 2.628-1.673 5.376-0.819 11.589-5.342 14.575-16.504 2.389-8.857 4.625-19.030 6.264-29.816-5.939-2.628-13.107-4.113-18.808-6.519v0zM321.962 198.998l-48.64-19.303c-8.704-3.601-18.91-7.253-26.163-11.998l-4.727-3.891c-0.307 0.853-0.631 1.724-0.956 2.628l5.12 4.233c7.287 4.694 17.442 8.329 26.163 11.998l48.691 19.286c5.7 2.406 12.868 3.891 18.841 6.536-0.341 2.099-0.683 4.113-1.007 6.161 0.256-1.467 0.495-2.885 0.768-4.352 0.12-0.649 0.188-1.314 0.29-1.962 0.103-0.955 0.188-1.877 0.29-2.885-5.99-2.577-13.005-4.062-18.671-6.451v0zM272.128 274.756c4.83-10.701 28.706-18.073 35.277-26.675-1.075-1.894-0.358-1.143-1.212-3.447-4.471 11.674-33.911 20.241-34.065 30.122v0zM240.845 168.055c-1.758 4.386-3.909 8.789-6.246 13.039 2.816-4.233 4.54-8.635 6.246-13.039v0zM232.431 244.275c0.273 2.27 0.393 3.976 0.427 5.239 0.597-0.256 0.751-2.509 0.085-8.175-0.785-6.486-0.563-13.261 0.461-19.695-1.468 7.322-1.877 15.138-0.973 22.631v0zM220.877 206.712c0.563-2.355 1.417-4.539 2.629-6.366 0.666-1.075 1.621-3.498 2.901-5.546 0-0.171 0-0.307 0-0.375-1.075 1.57-2.184 3.089-3.294 4.625-1.109 2.219-1.826 4.864-2.236 7.663v0zM318.515 262.298c-13.159 26.794-22.221 57.31-48.128 76.697-6.195 4.539-17.698 21.88-23.876 21.88-3.294 0-11.537 11.947-14.848 15.24-12.391 12.424-32.393 20.805-45.721 32.751 16.077-8.567 46.695-25.753 53.897-32.921 22.801-22.835 35.926-37.257 50.381-55.654 3.533-4.471 6.007-9.575 9.762-14.029 3.789-4.454 8.909-8.175 12.442-15.291 1.127-2.27 0.409-6.639 4.062-14.285 1.809-3.84 7.014-9.080 9.25-13.756 2.048-4.318 4.318-10.087 6.469-16.913-3.891 5.427-10.394 9.677-13.688 16.281v0zM226.406 194.782c0-0.154 0-0.325 0-0.392-7.27 10.599-15.087 19.183-20.548 22.818-14.899 9.933-48.298 36.301-62.225 57.275-2.287 3.431-8.328 5.888-9.148 8.96-2.355 3.84-2.629-1.724-5.888 3.226-4.045 6.212-6.998 16.52-13.517 26.812-7.936 12.544-14.114 31.232-20.753 49.049-2.287 0-2.355 5.291-2.355 8.141 0 5.649 1.724 7.253 3.072 11.383 3.311 10.172 9.506 20.002 16.435 27.341-3.737-13.414-26.999-35.533-13.585-48.964 13.995-14.012 18.944-55.228 34.577-71.749l30.072-31.744c8.005-8.482 30.447-35.857 45.243-35.857 9.899 0 11.964-16.503 11.964 4.54 0 10.718-7.833 35.021 3.294 12.357 0.273-0.563 0.512-1.143 0.751-1.724-3.806-11.094-6.007-27.153-0.307-35.909 0.683-1.075 1.638-3.498 2.918-5.563v0zM250.078 292.847c0 2.287-4.591 10.752-6.639 10.752 10.070 3.652-5.035 27.716-5.035 11.025-7.543 8.704-25.122 8.465-36.113 7.082-9.369-1.126-23.552-6.861-23.552-17.647-0.905 0.699-3.43 3.021-3.43 3.891 0-1.144 1.826-6.4 2.97-6.4 2.048-5.257 8.226-10.53 8.226-15.787 4.113-5.034 8.465-12.151 16.231-16.281l14.149-7.543c3.43-1.605 8.465 0.461 11.673 0.461 2.543-2.509 3.328-4.506 2.952-6.024-0.137 0.58-0.512 1.126-1.28 1.57-2.816 1.656-10.718 2.117-16.657 2.117-29.747 0-48.333 39.099-38.4 62.43 4.369 10.223 15.599 18.193 31.419 18.193 28.672 0 40.294-18.073 46.439-37.512 0.751-2.423-0.273-9.916 0.768-13.637 0.341-1.28 0.785-2.389 1.314-3.379-2.714 1.519-5.035 4.079-5.035 6.69v0zM224.444 252.809c-3.141-0.239-6.725 0.171-9.575 1.109-11.503 3.823-23.108 9.95-31.761 18.654 7.868-6.434 16.52-12.424 27.017-15.855 5.478-1.775 10.649-3.208 14.319-3.908v0zM214.153 303.957c-2.355-1.212-4.113-3.976-4.574-1.041-0.853 6.724 3.789 10.154 11.606 9.574 0 3.226-11.008 0-12.032-0.751-0.7-0.427-5.871-8.994-6.588-7.493-1.058 2.065 1.075 5.786 2.56 7.271 3.362 3.379 5.939 6.11 10.803 7.458-0.751-0.307-12.663-8.226-3.106-4.403 4.403 1.758 12.066 0.29 8.072-3.686-0.017-2.68-4.659-5.922-6.742-6.929v0zM214.596 292.779c8.517 0-0.717-5-1.605-5.888-4.847-4.881-7.816 0.563-10.735 6.605-1.502 3.072-2.799-2.645-3.976-4.983-0.597-1.178-7.322-3.55-7.902-3.55 0 3.55-1.485-0.154 0.41 5.581 1.485 4.403 3.533 5.427 8.67 5.427-4.284 4.574-9.608-2.202-13.363-2.492 2.509 1.622 10.735 10.172 14.541 6.332 2.526-2.491 2.526-6.451 4.284-10.035 3.942-8.038 7.766 3.004 9.677 3.004v0zM216.354 281.702c3.447 2.475 5.922 3.226 11.35 3.226-1.007-1.365 0.393-5.256-0.751-7.424-1.297-2.475-5.547-5.189-8.022-6.434-2.219-0.358-3.584 2.748-3.686 2.748-2.492-1.639-2.219 1.69-2.219 3.687-0.017 1.861 3.328 3.857 3.328 4.198v0zM314.317 72.635c-9.711-7.407-7.663-14.541-8.141-14.762-11.606-3.294-19.61 1.485-30.498 3.976-12.714 2.969-23.962 20.805-35.601 24.406-1.365 0.409-11.435 2.901-16.709 5.495 1.382 0 2.56 0.307 3.243 0.938 1.638 1.416 1.195 4.096 1.007 7.407 38.469-0.512 76.595-8.67 112.862 2.986 0.478-6.57 1.587-10.957 3.857-12.322-9.625-5.24-21.999-11.998-30.021-18.125v0zM227.635 100.045c0 0.29-0.034 0.563-0.034 0.819 38.469-0.563 76.561-8.277 112.845 2.56 0.034-0.154 0.034-0.29 0.034-0.392-36.25-11.656-74.376-3.498-112.845-2.986v0zM306.961 58.709c-0.256-0.086-0.461-0.137-0.717-0.205 0.034 1.775-0.017 6.553 5.478 11.878-5.854-6.161-4.352-11.469-4.762-11.673v0zM301.671 55.211c-10.786-5.291-25.583-13.039-37.632-12.425l-55.227 3.123c-5.939 0.358-11.964-0.171-17.784-1.416-0.085 0.034-0.188 0.12-0.307 0.137-14.114 5.752-41.541 18.944-49.528 32.853-6.042 10.445-5.086 19.251-1.57 25.873 0.427-1.467 0.7-3.397 0.7-5.854 0-16.981 9.267-21.846 24.371-29.337 5.922-2.935 17.357-12.613 40.687-17.272 12.185-2.423 26.726-2.304 41.387-2.526 10.035-0.171 21.009-0.938 27.887-1.007 9.182-0.154 27.375 9.506 29.901 10.103-0.615-0.887-1.57-1.639-2.885-2.253v0zM374.664 33.11c-7.663-8.482-1.467-13.090-16.333-13.363l-95.283-2.048c-4.079-0.12-8.482-0.068-13.005 0 6.058 1.809 13.961 3.397 16.145 3.789l70.058 8.943c10.137 1.246 21.606 6.486 31.727 6.486 5.598 0 13.637 1.962 21.282 4.983-6.007-3.209-12.578-6.519-14.592-8.789v0zM390.57 98.885c-6.929-1.536-8.858-12.339-14.285-12.339-11.178 0-25.054-5.051-31.983-12.015-8.482-8.499-28.143-13.892-38.605-17.374 0 0.188 0 0.358-0.017 0.529 0.205 0.086 0.358 0.12 0.512 0.171 0.443 0.256-1.604 7.373 8.123 14.762 8.038 6.127 20.411 12.885 30.020 18.056 0.683-0.426 1.485-0.563 2.406-0.392 15.582 2.782 44.202 15.274 63.642 14.183l-19.815-5.581z" />
<glyph unicode="&#xe63e;" d="M172.391 88.883c0 0 40.072-11.742 89.275-11.742 0 0 48.709-1.314 90.163 11.742l-0.341 174.131 45.824-21.658c0 0 5.769-5.239 10.53 0.375 2.68 3.311 23.365 32.615 32.307 47.872 4.199 7.305-0.358 7.868-0.358 7.868l-76.237 46.472c0 0-9.147 11.606-34.457 11.606h-21.76c0 0 0.7-46.797-45.688-46.797 0 0-45.654 2.901-45.005 46.797h-21.76c0 0-25.993-2.184-35.157-11.606l-76.356-46.114c0 0-3.174-3.993 0.359-10.872l32.41-45.96c0 0 5.273-4.694 11.264 0.751l45.073 21.265-0.085-174.131z" />
<glyph unicode="&#xe63f;" d="M177.083 141.073c-42.957 0-73.267-21.555-73.267-21.555v221.526c0 0 30.31 22.306 73.267 22.306 42.991 0 73.267-25.122 73.267-25.122v-218.744c0.017 0-30.276 21.589-73.267 21.589v0zM334.916 141.073c-42.991 0-73.267-21.555-73.267-21.555v221.526c0 0 30.276 22.306 73.267 22.306s73.284-25.122 73.284-25.122v-218.744c0 0-30.293 21.589-73.284 21.589v0zM295.458 95.795l0.734-11.144h-79.65v11.144h-135.27v222.959h11.298v-211.832h135.27v-11.127h56.371v11.127h135.27v211.832h11.298v-222.925l-135.322-0.034z" />
<glyph unicode="&#xe640;" d="M381.031 84.156c0 0-30.344-40.721-80.793-0.495-42.171-38.742-82.569 0.461-82.569 0.461-46.831-43.571-77.875 1.263-77.875 1.263-14.916-19.729-38.469-20.241-38.469-20.241v26.641c8.346-8.209 38.554 21.18 38.554 21.18 43.059-54.579 77.363 0.87 77.363 0.87s49.834-37.069 82.142-0.7c36.539-38.417 82.363 0.7 82.363 0.7 18.791-24.901 37.376-19.2 37.376-19.2l0.495-20.173c-12.63-24.047-38.587 9.694-38.587 9.694v0zM299.349 125.201c-10.735-12.595-33.861-15.94-33.861-15.94l-0.103 193.758c52.258-2.048 146.107-31.385 146.107-67.294 0-23.569-34.645-85.317-77.039-127.351-11.503 0.461-23.774 4.898-35.106 16.827v0zM362.325 341.163c0 24.183-19.49 23.006-19.49 23.006h-70.963v-48.776l-19.951-0.103-0.188 48.162h-70.605c0 0-22.238-3.704-21.76-23.706 0-25.958 0.375-41.881 0.375-41.881l-19.832-10.103c0 0-0.529 39.97 0 63.505 0.512 23.501 37.666 31.642 37.666 31.642h164.915c0 0 36.83-3.447 38.69-30.754 0-23.535 0-66.628 0-66.628l-18.841 10.854c-0.017 0-0.017 27.853-0.017 44.783v0zM256.068 109.688c-21.418 2.765-38.878 16.162-38.878 16.162s-11.486-18.449-29.457-23.501c-46.661 42.206-86.886 109.449-86.614 134.349 0.444 36.539 103.099 65.144 155.085 66.373 0.017-32.325-0.137-194.082-0.137-193.382v0z" />
<glyph unicode="&#xe641;" d="M68.522 270.745h105.898l70.963-221.099-176.862 221.099zM256.325 49.221l-62.651 221.525h116.531l-53.88-221.525zM265.848 49.647l65.144 221.099h105.113l-170.257-221.099zM334.421 285.218l51.029 87.928 51.080-87.928h-102.11zM318.361 287.249l-51.063 90.948h102.127l-51.063-90.948zM200.534 285.218l51.081 87.928 51.047-87.928h-102.127zM185.617 287.249l-51.081 90.948h102.093l-51.012-90.948zM67.413 285.218l51.064 87.928 51.081-87.928h-102.144z" />
<glyph unicode="&#xe642;" d="M112.555 312.167c0 0 7.066-0.171 9.865 11.178 3.379 13.551 18.705 54.767 18.705 54.767s4.25 17.784 26.453 17.784c22.221 0 184.917 0 184.917 0s20.975 1.246 29.286-17.408c9.933-22.409 12.885-51.251 12.885-51.251s2.799-16.281 21.231-17.272c21.692-1.161 47.224-18.398 11.554-65.843-35.618-47.428-68.267-79.019-164.591-83.029v-50.227c0 0 57.89 16.709 64.563 17.084 6.724 0.375 4.25-5.223 1.775-7.322-2.457-2.082-5.325-1.041-7.082-1.399-1.741-0.341-43.656-18.825-43.656-18.825l67.328-36.642c0 0 1.758-5.939 0.358-5.939-1.45 0-6.383-3.14-8.499 0-2.082 3.123-80.776 33.826-80.776 33.826l-75.895-28.262c0 0-2.082-4.539-6.332-4.864-4.25-0.358-8.124 0.325-4.95 7.629 3.174 7.356 65.263 32.444 65.263 32.444l-48.35 21.982c0 0-4.574-3.123-6.69 0.683-2.133 3.857 1.399 8.414 1.399 8.414l67.754-19.234-0.358 50.944c0 0-104.072 6.127-141.482 67.533-37.427 61.389-36.71 82.688-13.073 82.841 13.636 0.188 18.398 0.409 18.398 0.409v0z" />
<glyph unicode="&#xe643;" d="M354.134 138.718c-62.327-68.267-159.163-84.651-206.029-61.781 10.905 22.118 29.952 58.726 54.255 97.195 10.513-6.264 28.603-15.070 28.603-15.070l9.079 11.947c0 0-17.715 11.639-27.853 18.159 5.768 8.755 11.793 17.493 18.006 26.095 10.599-6.229 27.955-14.678 27.955-14.678l9.063 11.998c0 0-15.803 10.325-26.095 16.982 3.106 4.062 6.076 8.192 9.267 12.101 4.625 5.683 9.489 10.838 14.319 16.111 0.103-0.069 0.239-0.137 0.341-0.188 9.711-6.195 31.351-16.709 31.351-16.709l9.046 11.947c0 0-17.954 11.81-28.091 18.296 5.342 5.342 10.632 10.649 16.009 15.53 10.428-6.246 28.962-15.24 28.962-15.24l9.046 11.947c0 0-13.841 9.079-24.081 15.702 32.751 27.665 64.256 47.087 83.644 57.924 32.938-39.031 29.423-145.715-36.796-218.265v0zM270.967 320.051l-9.079-11.947c0 0 11.247-7.953 20.651-14.387-5.445-5.018-10.837-10.428-16.231-15.94-9.711 5.581-21.248 11.742-21.248 11.742l-9.063-11.947c0 0 9.421-6.69 18.262-12.8-4.147-4.591-8.345-9.063-12.374-13.96-3.909-4.796-7.56-9.847-11.333-14.797-10.155 5.939-23.757 13.209-23.757 13.209l-9.079-11.947c0 0 12.459-8.84 22.153-15.394-6.263-8.755-12.339-17.596-18.142-26.437-9.899 5.7-22.136 12.237-22.136 12.237l-9.063-11.93c0 0 12.015-8.517 21.607-15.036-24.576-39.117-43.708-76.118-54.221-97.605-1.417 1.075-2.935 2.116-4.232 3.277-37.957 35.67-38.007 147.593 31.59 223.846 67.43 73.899 174.848 84.992 216.439 55.108-19.746-10.991-52.087-30.959-85.453-59.443-10.24 6.076-25.293 14.149-25.293 14.149v0z" />
<glyph unicode="&#xe644;" d="M408.627 98.202c-15.906-20.839-41.83-27.836-57.925-15.599-16.060 12.202-16.264 38.963-0.358 59.819 15.906 20.873 41.813 27.818 57.907 15.616 16.128-12.219 16.281-38.981 0.375-59.836v0zM341.675 190.737v-28.791h-169.608v28.791l-37.666 42.906c0.119-0.154-7.594 6.895-7.594 18.056 0 14.097 11.418 25.463 25.497 25.463 11.383 0 20.941-7.475 24.201-17.766l37.939-26.658c0 0 17.869-9.216 44.886-9.267 27.050-0.051 47.889 9.267 47.889 9.267l33.331 26.658c3.294 10.274 12.8 17.767 24.2 17.767 14.046 0 25.498-11.367 25.498-25.464 0-10.393-5.24-15.872-8.431-18.808l-40.141-42.154zM259.704 230.007c-39.134 0-70.844 31.675-70.844 70.707s31.693 70.69 70.844 70.69c39.151 0 70.844-31.659 70.844-70.69s-31.71-70.707-70.844-70.707v0zM208.077 288.615c0 0 11.435-29.218 50.091-29.218 38.673 0 53.572 29.218 53.572 29.218h-103.663zM161.621 142.438c15.872-20.839 15.736-47.616-0.358-59.836-16.111-12.219-42.001-5.24-57.924 15.616-15.889 20.839-15.752 47.599 0.341 59.818 16.145 12.219 42.053 5.257 57.941-15.599v0zM172.202 148.207v3.072h169.336v-1.024c-2.526-2.373-5.034-4.898-7.236-7.8-13.875-18.21-15.548-40.977-4.983-54.562h-147.012c10.582 13.585 8.892 36.369-4.95 54.562-1.638 2.099-3.397 3.942-5.154 5.752v0z" />
<glyph unicode="&#xe645;" d="M266.36 317.645h-55.928l-19.064 87.774h93.338l-18.346-87.774zM241.647 24.644l-93.371 78.183 61.747 198.332h57.498l60.331-198.332-86.204-78.183zM337.903 154.231l-43.127 119.466 68.966-92.672v-26.777l-25.839-0.017z" />
<glyph unicode="&#xe646;" d="M415.471 331.161c-10.94-18.381-29.73-28.245-46.745-26.419l-35.772-59.614 11.025-24.661c0 0 42.274-28.058 51.541-50.841 20.207-49.476-3.26-87.125-3.26-87.125l-69.359 128.12-77.483-111.445c0 0-18.961 40.089 6.758 86.954 11.862 21.589 57.054 44.613 57.054 44.613l9.029 15.224-24.883 54.835c-17.118 0.136-34.68 12.117-43.417 31.607-11.281 25.122-3.635 52.958 17.049 62.208 20.685 9.233 44.219-4.71 55.483-29.849 9.284-20.685 7.168-42.343-5.359-54.562l-6.298-15.616 15.599-34.867 24.2 40.841-4.438 16.231c-11.042 13.568-10.666 35.311 0.938 54.818 14.097 23.654 39.065 34.816 58.573 23.279 19.456-11.537 23.859-40.055 9.762-63.727v0zM301.875 355.823c-4.625 10.308-14.592 15.923-23.535 11.93-8.926-3.976-12.425-15.582-7.8-25.89 4.625-10.325 15.633-15.463 24.559-11.486 8.926 3.993 11.401 15.121 6.776 25.447v0zM391.373 369.493c-8.431 4.983-18.961 0.581-24.747-9.147s-4.625-21.060 3.789-26.043c8.431-4.983 19.934-1.126 25.702 8.567 5.786 9.745 3.652 21.658-4.745 26.624v0zM180.633 331.673l28.314 48.469 27.546-48.469 0.512-11.315h-56.354v11.315h-0.017zM248.184 275.097h-78.899v33.946h78.899v-33.946zM282.812 251.733l11.913-11.725c-16.845-4.335-56.047-34.338-71.817-83.268-10.991-34.082 26.078-80.827 26.078-80.827l56.32 87.142v-91.495l-11.793-11.964-22.067-11.059h-124.894l-22.75 10.974-11.486 11.452v158.925l22.614 22.136 34.185 11.879 80.418-0.103 33.28-12.066z" />
<glyph unicode="&#xe647;" d="M406.87 46.233h-155.529c0 0-11.895 5.274-11.895 11.878v333.397c0 6.588 5.342 11.912 11.895 11.912l154.061 0.103c6.57 0 12.63-4.591 12.63-11.178v-334.233c0 0-4.557-11.878-11.161-11.878v0zM287.079 379.614h-23.825v-23.808h23.825v23.808zM287.079 343.876h-23.825v-23.808h23.825v23.808zM287.079 308.173h-23.825v-23.808h23.825v23.808zM287.079 272.435h-23.825v-23.825h23.825v23.825zM287.079 236.732h-23.825v-23.808h23.825v23.808zM287.079 200.994h-23.825v-23.825h23.825v23.825zM287.079 165.274h-23.825v-23.808h23.825v23.808zM287.079 129.553h-23.825v-23.825h23.825v23.825zM287.079 93.832h-23.825v-23.825h23.825v23.825zM322.765 379.614h-23.791v-23.808h23.791v23.808zM322.765 343.876h-23.791v-23.808h23.791v23.808zM322.765 308.173h-23.791v-23.808h23.791v23.808zM322.765 272.435h-23.791v-23.825h23.791v23.825zM322.765 236.732h-23.791v-23.808h23.791v23.808zM322.765 200.994h-23.791v-23.825h23.791v23.825zM322.765 165.274h-23.791v-23.808h23.791v23.808zM322.765 129.553h-23.791v-23.825h23.791v23.825zM358.502 379.614h-23.808v-23.808h23.808v23.808zM358.502 343.876h-23.808v-23.808h23.808v23.808zM358.502 308.173h-23.808v-23.808h23.808v23.808zM358.502 272.435h-23.808v-23.825h23.808v23.825zM358.502 236.732h-23.808v-23.808h23.808v23.808zM358.502 200.994h-23.808v-23.825h23.808v23.825zM358.502 165.274h-23.808v-23.808h23.808v23.808zM358.502 129.553h-23.808v-23.825h23.808v23.825zM394.24 379.614h-23.825v-23.808h23.825v23.808zM394.24 343.876h-23.825v-23.808h23.825v23.808zM394.24 308.173h-23.825v-23.808h23.825v23.808zM394.24 272.435h-23.825v-23.825h23.825v23.825zM394.24 236.732h-23.825v-23.808h23.825v23.808zM394.24 200.994h-23.825v-23.825h23.825v23.825zM394.24 165.274h-23.825v-23.808h23.825v23.808zM394.24 129.553h-23.825v-23.825h23.825v23.825zM394.24 93.832h-23.825v-23.825h23.825v23.825zM215.62 46.233h-119.074c-6.588 0-11.93 5.274-11.93 11.878v202.411c0 6.57 5.342 11.912 11.93 11.912h119.074c6.588 0 11.895-5.342 11.895-11.912v-202.411c0-6.605-5.308-11.878-11.895-11.878v0zM132.267 248.627h-23.825v-35.704h23.825v35.703zM132.267 200.994h-23.825v-35.738h23.825v35.738zM132.267 153.361h-23.825v-35.721h23.825v35.721zM132.267 105.728h-23.825v-35.738h23.825v35.738zM167.987 248.627h-23.808v-35.704h23.825v35.703h-0.017zM167.987 200.994h-23.808v-35.738h23.825v35.738h-0.017zM167.987 153.361h-23.808v-35.721h23.825v35.721h-0.017zM203.708 248.627h-23.825v-35.704h23.825v35.703zM203.708 200.994h-23.825v-35.738h23.825v35.738zM203.708 153.361h-23.825v-35.721h23.825v35.721zM203.708 105.728h-23.825v-35.738h23.825v35.738z" />
<glyph unicode="&#xe648;" d="M392.243 67.192c0 0-11.707 0.785-11.707 13.329v-0.392l-249.088-0.375v0.785c0-12.544-11.707-13.329-11.707-13.329-16.35 0-13.21 12.544-13.21 12.544v200.687c0-7.048 24.917-12.544 24.917-12.544v-87.808l249.105-0.375v88.183c0 0 24.935 5.495 24.935 12.544v-200.687c0 0 3.089-12.561-13.243-12.561v0zM368.094 192.649h-224.188l12.834 25.481 198.912-0.375 12.442-25.105zM368.64 280.696c-37.376 0-37.12 37.376-37.12 37.376 0-37.649-38.161-37.649-38.161-37.649-38.11 0-38.11 36.864-38.11 36.864 0-37.649-35.806-36.864-35.806-36.864-38.946 0-38.144 37.649-38.144 37.649 0-37.649-37.376-37.649-37.376-37.649-39.731-0.785-37.137 37.649-37.137 37.649v12.544h298.718v-13.329c-0.017-37.632-36.864-36.591-36.864-36.591v0zM118.204 318.327c0 0 0.785-25.344 26.454-25.344 0 0 24.149 1.826 24.149 25.344h-50.602zM192.922 318.327c0 0 0.785-25.344 26.505-25.344 0 0 24.115 1.826 24.115 25.344h-50.619zM267.69 318.327c0 0 0.785-25.344 26.454-25.344 0 0 24.149 1.826 24.149 25.344h-50.603zM342.409 318.327c0 0 0.768-25.344 26.471-25.344 0 0 24.098 1.826 24.098 25.344h-50.569zM392.977 343.159h-273.971c-6.895 0-12.459 5.598-12.459 12.544l24.918 25.088h249.105c19.899-14.097 24.935-25.088 24.935-25.088-0.017-6.929-5.632-12.544-12.527-12.544v0z" />
<glyph unicode="&#xe649;" d="M81.067 113.067v221.866h349.866v-221.866h-349.866zM405.334 309.333h-298.666v-170.666h298.666v170.666zM174.934 241.066h-51.2v51.2h51.2v-51.2zM174.934 155.733h-51.2v51.2h51.2v-51.2zM251.733 241.066h-51.2v51.2h51.2v-51.2zM320 155.733h-119.466v51.2h119.466v-51.2zM388.267 241.066h-51.2v51.2h51.2v-51.2zM388.267 155.733h-51.2v51.2h51.2v-51.2zM268.8 292.267h51.2v-51.2h-51.2v51.2z" />
<glyph unicode="&#xe64a;" d="M251.409 112.589c-119.21 36.488-99.43 206.489-99.43 206.489 74.666-28.74 99.43 15.292 99.43 15.292 32.666-46.37 107.077-15.291 107.077-15.291 23.142-162.662-107.077-206.489-107.077-206.489v0zM327.885 303.769c0 0-9.438-9.575-30.601-7.646-20.923 1.894-45.875 15.291-45.875 15.291v-76.493h-68.83c0 0 0.7-35.328 15.291-53.521 15.958-19.968 53.555-38.264 53.555-38.264v84.138h76.459v76.493z" />
<glyph unicode="&#xe64b;" d="M224.341 283.221l21.93 22.835v-54.989c0-5.512 4.267-9.95 9.541-9.95s9.541 4.438 9.541 9.95v55.45l22.341-23.228c3.738-3.874 9.728-3.874 13.466 0 3.738 3.909 3.738 10.206 0 14.080l-37.342 38.878c-0.307 0.426-0.461 0.905-0.819 1.297-0.017 0-0.051 0.017-0.051 0.034-1.775 2.099-4.25 3.516-7.134 3.516-3.994 0-7.39-2.577-8.806-6.213l-36.13-37.598c-3.738-3.874-3.738-10.206 0-14.063 3.686-3.874 9.728-3.874 13.465 0zM287.659 166.178l-21.93-22.835v54.971c0 5.529-4.267 9.967-9.541 9.967s-9.541-4.438-9.541-9.967v-55.433l-22.34 23.228c-3.738 3.874-9.728 3.874-13.465 0-3.738-3.909-3.738-10.206 0-14.097l37.342-38.861c0.307-0.426 0.461-0.904 0.819-1.297 0.017 0 0.051-0.034 0.051-0.034 1.775-2.099 4.25-3.533 7.134-3.533 3.993 0 7.39 2.594 8.806 6.229l36.13 37.598c3.738 3.874 3.738 10.206 0 14.063-3.687 3.874-9.728 3.874-13.466 0z" />
<glyph unicode="&#xe64c;" d="M402.381 243.798c-19.234-20.787-38.502-41.558-57.805-62.361 0-1.297 0.103-3.226 0.443-6.127 1.467-11.742 2.918-23.603 4.352-35.362 1.928-15.497 3.874-30.942 5.752-46.404 1.553-12.459-13.892-17.425-23.125-13.073-25.276 11.998-50.637 23.995-75.93 35.959-0.751-0.307-1.314-0.529-2.185-0.973-10.666-5.069-21.334-10.137-32.034-15.173-13.944-6.639-27.904-13.226-41.899-19.832-9.199-4.369-24.627 0.598-23.108 13.073 2.406 19.37 4.796 38.759 7.185 58.163l1.093 32.171c-7.97 8.67-15.958 17.203-23.91 25.805-10.565 11.384-21.112 22.767-31.659 34.133-7.185 7.799-5.137 23.040 6.793 25.327 28.194 5.444 56.456 10.939 84.65 16.401 0.649 0.99 1.349 2.202 2.287 3.926 5.734 10.41 11.4 20.804 17.101 31.232 7.458 13.671 14.865 27.307 22.323 40.977 3.157 5.752 8.243 7.8 13.261 7.39 5.001 0.409 10.138-1.639 13.278-7.39 13.824-25.293 27.631-50.585 41.387-75.844 1.195-0.358 2.646-0.734 4.813-1.161 11.606-2.219 23.159-4.471 34.697-6.759 15.173-2.918 30.31-5.837 45.414-8.789 12.049-2.287 14.097-17.511 6.827-25.31v0z" />
<glyph unicode="&#xe64d;" d="M407.365 244.463c-10.906-11.742-21.829-23.501-32.734-35.294-8.226-8.892-16.503-17.715-24.695-26.675h-36.438c0.683 3.976 1.758 7.543 3.498 10.377 10.889 18.363 28.313 35.038 45.125 51.081-26.59 2.594-58.385 6.11-71.168 18.705-14.524 14.285-24.952 36.983-34.611 58.351-10.291-24.047-22.681-51.627-38.553-60.809-17.255-9.933-43.298-12.902-67.243-15.616 19.268-17.272 40.909-37.12 45.995-55.433 5.239-18.791-0.427-45.773-5.581-69.939 21.674 12.8 46.063 26.59 65.041 26.59 18.841 0 42.974-13.619 64.495-26.3-2.116 9.541-4.318 19.763-5.871 29.73h36.403c2.491-20.070 4.933-40.123 7.441-60.143 1.604-12.885-14.37-18.022-23.877-13.517-14.473 6.827-28.877 13.654-43.298 20.531-11.042 5.205-22.067 10.428-33.11 15.685-0.921 0.409-1.485 0.666-2.27 1.007-26.146-12.408-52.344-24.798-78.489-37.222-9.575-4.505-25.531 0.632-23.945 13.517 1.98 16.009 3.942 31.949 5.922 47.974 1.536 12.185 3.038 24.44 4.574 36.591 0.341 2.986 0.427 5 0.427 6.349-19.951 21.504-39.834 42.974-59.751 64.461-7.492 8.072-5.376 23.808 7.014 26.18 15.633 3.038 31.301 6.058 46.967 9.113 11.912 2.338 23.876 4.659 35.857 6.963 2.253 0.426 3.738 0.802 4.983 1.194 14.233 26.112 28.501 52.258 42.786 78.422 3.26 5.922 8.55 8.055 13.738 7.611 5.189 0.427 10.427-1.689 13.705-7.629 7.697-14.148 15.36-28.228 23.074-42.359 5.922-10.769 11.776-21.538 17.698-32.29 0.973-1.775 1.69-3.038 2.355-4.062 29.167-5.666 58.351-11.332 87.518-16.964 12.356-2.389 14.49-18.125 7.014-26.18v0zM407.365 244.463c-19.899-21.487-39.817-42.957-59.75-64.461 0-1.349 0.086-3.362 0.443-6.349 1.536-12.151 3.021-24.406 4.505-36.591 2.014-16.009 3.993-31.966 5.957-47.974 1.604-12.885-14.37-18.022-23.928-13.517-26.129 12.425-52.327 24.815-78.49 37.222-0.768-0.341-1.349-0.58-2.253-1.007-11.042-5.257-22.050-10.479-33.109-15.685-14.422-6.878-28.843-13.704-43.315-20.531-9.523-4.505-25.481 0.632-23.893 13.517 2.492 20.036 4.95 40.089 7.458 60.143h36.386c-1.536-9.967-3.755-20.207-5.871-29.73 21.538 12.68 45.654 26.3 64.512 26.3 18.978 0 43.349-13.79 65.041-26.59-5.188 24.166-10.82 51.149-5.563 69.939 5.086 18.313 26.709 38.161 45.995 55.433-23.945 2.696-50.005 5.683-67.243 15.616-15.872 9.199-28.262 36.779-38.553 60.808-9.66-21.385-20.088-44.083-34.611-58.351-12.783-12.595-44.595-16.111-71.185-18.705 16.81-16.042 34.27-32.717 45.142-51.080 1.724-2.833 2.833-6.4 3.499-10.377h-36.454c-8.226 8.943-16.487 17.784-24.713 26.675-10.922 11.793-21.811 23.552-32.734 35.294-7.458 8.072-5.342 23.808 7.014 26.18 29.167 5.632 58.351 11.315 87.535 16.964 0.666 1.024 1.399 2.27 2.355 4.062 5.922 10.752 11.776 21.521 17.681 32.29 7.697 14.131 15.377 28.211 23.074 42.36 3.277 5.939 8.517 8.072 13.704 7.629 5.188 0.426 10.462-1.69 13.738-7.629 14.285-26.163 28.57-52.293 42.803-78.421 1.229-0.375 2.714-0.768 4.983-1.195 11.981-2.304 23.945-4.625 35.874-6.963 15.685-3.038 31.334-6.059 46.95-9.114 12.408-2.372 14.524-18.107 7.014-26.163v0z" />
<glyph unicode="&#xe64e;" d="M320.58 320.853l-118.153-118.409c-11.554-11.486-30.362-11.486-41.933 0-11.589 11.435-11.589 30.037 0 41.506l118.153 118.409c11.606 11.469 30.344 11.469 41.933 0 11.589-11.452 11.589-30.038 0-41.506v0zM319.625 85.64c-11.571-11.452-30.361-11.452-41.933 0l-117.18 117.47c-11.589 11.452-11.589 30.037 0 41.506 11.571 11.469 30.362 11.469 41.933 0l117.197-117.419c11.52-11.503 11.52-30.123-0.017-41.558v0z" />
<glyph unicode="&#xe64f;" d="M444.126 327.868c0 0-8.499-7.151-16.81 1.212l-23.006 23.125c0 0-9.882 8.892-1.536 17.305 17.664 17.8 32.563 0.683 32.563 0.683l8.789-8.806c16.64-16.76 0-33.519 0-33.519v0zM419.311 303.957l-124.808-125.662c0 0 7.099 9.608-11.094 27.938 0 0-19.046 21.828-27.904 12.92l123.085 125.509c10.070 10.12 18.654-1.673 18.654-1.673l21.76-21.913c9.694-9.797 0.307-17.118 0.307-17.118v0zM240.401 148.429l-22.528-8.721 8.055 25.413c16.128-3.687 14.472-16.691 14.472-16.691v0zM275.080 197.837c16.64-16.743 10.582-28.45 10.582-28.45l-36.147-13.858c1.792 9.13-3.84 13.226-3.84 13.226-4.677 5.769-12.476 5.769-12.476 5.769l14.575 36.642c12.22 5 27.306-13.329 27.306-13.329v0zM137.625 100.762h225.962v89.139h30.822v-119.518h-287.574v273.357h205.415v-30.362h-174.626v-212.616z" />
<glyph unicode="&#xe650;" d="M112.35 74.666v298.683h79.070v-298.683h-79.070zM224.375 298.667v74.683h186.658v-74.683h-186.658zM224.375 186.658v74.666h186.658v-74.666h-186.658zM224.375 74.666v74.666h186.658v-74.666h-186.658z" />
<glyph unicode="&#xe651;" d="M258.901 353.69c0-19.371 14.933-32.512 33.349-32.512s33.349 13.159 33.349 32.512c0 19.387-14.933 32.529-33.349 32.529s-33.349-13.142-33.349-32.529v0zM186.709 242.705c0-3.857-0.717-13.381 0.069-19.149l29.115 34.355c6.024 6.468 12.988 11.008 16.554 9.762 3.55-1.212 5.512-5.325 4.352-9.147l-48.145-156.399c-5.564-18.279 4.933-36.25 30.481-40.329 37.462 0 59.699 24.832 81.579 57.019 0 3.857 1.28 13.978 0.495 19.712l-29.099-34.338c-6.024-6.469-13.517-10.991-17.066-9.762-3.294 1.144-5.222 4.728-4.574 8.277l48.487 157.15c4.045 19.934-6.895 38.093-30.089 40.431-24.371 0.017-60.297-25.395-82.159-57.583v0z" />
<glyph unicode="&#xe652;" d="M396.493 95.761l-256.921 0.632c-10.12-1.246-30.072 18.586-30.328 30.139v164.147c0 11.298 9.079 20.531 20.531 20.531h20.514v41.029h92.331v-41.029h153.89c11.452 0 20.497-9.25 20.497-20.531v-174.387c0-11.315-9.063-20.531-20.514-20.531v0zM217.6 326.315h-41.523v-30.703h41.523v30.703zM227.959 275.592c-40.124 0-72.653-32.085-72.653-71.629 0-39.56 32.529-71.629 72.653-71.629s72.67 32.069 72.67 71.629c0 39.543-32.546 71.629-72.67 71.629v0zM368.094 290.287c-11.452 0-20.787-9.165-20.787-20.446 0-11.315 9.336-20.48 20.787-20.48 11.486 0 20.787 9.165 20.787 20.48 0 11.281-9.301 20.446-20.787 20.446v0zM227.976 156.211c-25.805 0-46.728 20.616-46.728 46.029 0 25.429 20.923 46.046 46.728 46.046 25.77 0 46.695-20.617 46.695-46.046 0.017-25.413-20.906-46.029-46.695-46.029v0z" />
<glyph unicode="&#xe653;" d="M150.357 194.236l-0.734-37.308-70.041 67.447 70.041 63.88 0.734-37.308h124.723v-56.712h-124.723zM161.69 80.845v68.028h22.665v-34.031h136.089v226.782h-136.089l0.307-44.63-22.971-0.699v79.36h215.45v-294.81h-215.45z" />
<glyph unicode="&#xe654;" d="M383.505 214.921l-48.504 48.503h28.416c-0.273 0.7-0.546 1.399-0.819 2.117-16.845 42.701-58.488 72.909-107.178 72.909-63.642 0-115.217-51.575-115.217-115.2 0-63.642 51.576-115.217 115.217-115.217 46.779 0 87.057 27.921 105.113 67.976 0.171 0.392 0.273 0.802 0.443 1.195l30.907-30.703c-0.222-0.358-0.358-0.802-0.58-1.127-0.034-0.086-0.086-0.188-0.12-0.239-27.272-47.104-78.2-78.797-136.534-78.797-87.057 0-157.627 70.622-157.627 157.662 0 87.057 70.57 157.627 157.627 157.627 72.772 0 134.041-49.322 152.2-116.343 0.154-0.615 0.205-1.28 0.358-1.878h24.798l-48.503-48.486z" />
<glyph unicode="&#xe655;" d="M392.824 53.265l-60.16 63.062c-24.44-19.029-54.579-30.464-87.33-30.464-81.118 0-146.875 69.137-146.875 154.419 0 85.265 65.775 154.402 146.875 154.402 81.135 0 146.858-69.137 146.858-154.402 0-39.697-14.37-75.793-37.769-103.117l59.17-62.072-20.77-21.829zM355.192 240.947c0 63.949-49.339 115.798-110.166 115.798-60.843 0-110.166-51.849-110.166-115.798 0-63.983 49.322-115.815 110.166-115.815 60.825 0 110.166 51.832 110.166 115.815v0z" />
<glyph unicode="&#xe656;" d="M352.649 158.993c-13.773 0-26.163-5.717-35.021-14.865l-131.123 65.553c0.358 2.526 0.597 5.103 0.597 7.731s-0.239 5.188-0.597 7.697l131.123 65.57c8.858-9.148 21.248-14.848 35.021-14.848 26.863 0 48.691 21.794 48.691 48.674 0 26.897-21.811 48.691-48.691 48.691-26.897 0-48.691-21.794-48.691-48.691 0-2.629 0.188-5.189 0.615-7.714l-131.174-65.57c-8.857 9.165-21.248 14.865-35.004 14.865-26.863 0-48.691-21.811-48.691-48.691s21.828-48.709 48.691-48.709c13.756 0 26.163 5.683 35.004 14.865l131.174-65.587c-0.426-2.491-0.615-5.103-0.615-7.697 0-26.88 21.777-48.709 48.691-48.709 26.863 0 48.691 21.811 48.691 48.709 0 26.931-21.829 48.726-48.691 48.726v0z" />
<glyph unicode="&#xe657;" d="M127.949 367.565h259.379c0 0 16.845-1.075 21.146-18.995v-36.898l-116.087-118.597v-115.712c0 0-1.314-11.469-26.641-17.203v197.768l72.141 64h-160.495l69.495-64v-197.768c0 0-24.354 3.584-26.744 19.098v112.264l-116.566 112.264v40.841c0 0-2.15 19.353 24.371 22.938z" />
<glyph unicode="&#xe658;" d="M448.853 273.528h-93.013c0.615 1.229 1.246 3.396 1.861 6.502 1.246 2.475 1.877 4.335 1.877 5.598h80.896v25.088h-22.323c2.474 7.458 4.642 15.496 6.502 24.183h-36.25c-1.894-8.704-4.079-16.742-6.553-24.183h-19.524c0.615 5.598 0.973 10.855 0.973 15.821v16.726h-42.786v-20.446c0-1.861-0.358-4.028-0.973-6.502 0-2.492 0-4.352 0-5.598h-15.803c-2.491 7.458-4.625 15.496-6.502 24.183h-36.267c1.861-8.704 4.027-16.742 6.486-24.183h-21.385v-25.105h69.751c-1.212-3.72-2.782-7.748-4.642-12.083h-74.394v-25.122h55.791c-11.144-10.565-30.072-20.787-56.73-30.703v-25.122c11.776 3.123 22.648 6.519 32.546 10.24v-8.346h26.061c1.861-21.726-15.531-36.915-52.088-45.585v-23.228c61.986 8.055 92.399 30.976 91.136 68.813h42.786v-27.904c0-8.089-3.721-12.101-11.144-12.101h-13.943v-24.183h31.642c23.552-0.615 35.021 10.223 34.406 32.546v39.065c9.284-2.491 19.832-5.274 31.625-8.363v24.183c-23.586 8.038-40.618 18.279-51.149 30.703h51.132v25.105zM306.551 220.502c15.497 8.67 27.289 17.988 35.311 27.904h10.291c8.653-11.178 17.937-20.463 27.87-27.904h-73.472zM500.599 167.099c3.652 0 7.253 0 10.906 0 0-1.792 0-3.635 0-5.427-10.974 3.106-4.728-0.632-10.906 5.427v0zM500.599 183.347c-7.253 0-14.507 0-21.709 0-2.526-12.971-6.315-17.033-10.889-27.085-1.792 0-3.652 0-5.427 0 0 3.601 0 7.202 0 10.837 7.407 6.298 8.277 9.899 10.854 21.657 10.906 1.826 21.76 3.635 32.615 5.445 0-1.809 0-3.618 0-5.445-1.775 0-3.601 0-5.427 0-0.017-1.775-0.017-3.601-0.017-5.41v0zM484.318 156.262c0-3.635 0-7.236 0-10.872-40.175-1.639-31.471-19.029-59.801-27.085 0 1.792 0 3.618 0 5.393 8.431 4.813 11.401 7.97 16.333 16.281-10.974 3.123-4.711-0.666-10.906 5.393 9.029 1.826 18.125 3.635 27.187 5.445 0 1.775 0 3.584 0 5.41 1.809 0 3.618 0 5.427 0 0-1.826 0-3.635 0-5.41 7.253 1.809 14.507 3.618 21.76 5.445v0zM419.106 112.879c0-1.792 0-3.618 0-5.41-6.178 6.178-2.185 0.034-5.427 10.854 3.601 0 7.219 0 10.854 0 0-1.826 0-3.618 0-5.427-1.826-0.017-3.652-0.017-5.427-0.017v0zM489.745 248.405c6.178-6.195 2.134-0.017 5.427-10.838-1.826 0-3.652 0-5.427 0 0 3.601 0 7.219 0 10.838v0zM478.89 313.429c0 5.427 0 10.838 0 16.248 3.618 0 7.219 0 10.872 0-1.809-5.41-3.652-10.821-5.427-16.248-1.843 0-3.67 0-5.445 0v0zM489.745 221.286c-1.809 0-3.652 0-5.427 0 0 0-5.683-13.022-10.906-5.41 3.652 5.41 7.253 10.838 10.906 16.248 2.253-3.123 8.858-0.785 5.427-10.837v0zM457.13 280.9c0-1.809 0-3.618 0-5.41-10.94 3.123-4.711-0.649-10.906 5.41 3.652 0 7.305 0 10.906 0v0zM457.13 172.51c-5.427 0-10.906 0-16.281 0 0 3.601 0 7.236 0 10.837 5.376 0 10.854 0 16.281 0 0-3.601 0-7.236 0-10.837v0zM484.318 248.405c-0.188 60.518-32.973 72.823-54.375 108.391 3.618 0 7.253 0 10.906 0 14.404-7.68 65.468-84.19 43.469-108.391v0zM353.826 205.039c0 3.635 0 7.236 0 10.837 5.462-1.826 10.906-3.601 16.333-5.427 0-1.775 0-3.635 0-5.41-5.427 0-10.854 0-16.333 0v0zM370.159 215.877c1.809 0 3.601 0 5.445 0 0 1.775 0 3.618 0 5.41 6.144-6.178 2.151-0.017 5.393-10.837-3.601 0-7.253 0-10.854 0 0.017 1.809 0.017 3.601 0.017 5.427v0zM353.826 91.204c-9.029 0-18.108 0-27.187 0 0 1.809 0 3.601 0 5.445 9.079 0 18.142 0 27.187 0 0-1.843 0-3.635 0-5.445v0zM299.503 96.649c-5.41 0-10.889 0-16.315 0 0 1.775 0 3.601 0 5.376 5.427 0 10.906 0 16.315 0 0-1.775 0-3.584 0-5.376v0zM65.775 161.673c0-1.792 0-3.601 0-5.393-7.254 0-14.489 0-21.76 0 0-1.826 0-3.635 0-5.41-3.635 0-7.254 0-10.871 0 0-1.809 0-3.618 0-5.445-3.618 0-7.253 0-10.871 0 0-1.775 0-3.601 0-5.393-8.226-6.298-9.557-7.526-21.743-10.837 0 5.393 0 10.837 0 16.231 1.809 0 3.618 0 5.444 0 20.326 24.423 90.163 38.759 130.458 27.119 12.68 0 25.378 0 38.042 0 0-1.809 0-3.618 0-5.41 5.445 0 10.888 0 16.315 0 0-1.792 0-3.635 0-5.427 9.046 0 18.125 0 27.17 0 0-1.792 0-3.601 0-5.393 6.195-6.195 2.167-0.034 5.445-10.872-40.755 7.97-70.912 16.64-125.031 16.264-10.871-0.034-21.743-0.034-32.597-0.034v0zM49.442 324.267c0-1.809 0-3.618 0-5.41-3.618 0-7.236 0-10.855 0-13.159-6.69-20.958-17.152-38.059-21.691 0 5.41 0 10.838 0 16.264 5.444 1.809 10.871 3.618 16.316 5.427 0 1.792 0 3.601 0 5.41 3.618 0 7.236 0 10.855 0 0 1.792 0 3.618 0 5.41 10.889 1.809 21.743 3.618 32.632 5.427 0 1.792 0 3.618 0 5.41 10.855 0 21.743 0 32.597 0 50.602 0.358 83.507-8.773 125.031-10.838-1.792-5.41-3.618-10.82-5.427-16.248-33.041 12.817-120.457 27.187-163.089 10.837v0zM27.716 297.182c16.299 3.618 32.615 7.236 48.913 10.837 4.608-6.144-0.683-0.785 5.445-5.41-4.591-6.127 0.683-0.785-5.445-5.41 0-1.809 0-3.618 0-5.427-12.681-1.792-25.344-3.618-38.041-5.41-14.779-6.622-15.633-16.674-38.059-21.691 0 5.41 0 10.854 0 16.264 7.253 1.809 14.489 3.618 21.743 5.427 1.809 3.584 3.618 7.202 5.445 10.82v0zM201.643 297.182c0-3.618 0-7.219 0-10.838-20.088 0.325-39.595 6.536-54.34 10.838-18.125 0-36.249 0-54.392 0 0 1.792 0 3.618 0 5.41-3.601 0-7.237 0-10.855 0 0 1.809 0 3.618 0 5.41 58.043 0.99 80.571-3.396 119.586-10.82v0zM49.442 270.063c5.444-1.792 10.889-3.601 16.333-5.41 1.792 3.618 3.618 7.236 5.41 10.854 5.445-1.809 10.888-3.618 16.333-5.427 0 1.809 0 3.618 0 5.427 25.463 5.786 92.826-1.297 103.27-10.854 6.195-6.178 2.15 0 5.427-10.838-30.566 1.792-74.326 20.856-108.698 10.838 0-1.792 0-3.601 0-5.393-9.063 0-18.125 0-27.187 0 0-1.809 0-3.618 0-5.445-7.254 0-14.507 0-21.743 0 0-1.792 0-3.601 0-5.393-14.575-7.151-21.214-12.391-38.059-16.281 1.809 5.445 3.618 10.838 5.444 16.281 14.507 7.202 28.979 14.422 43.469 21.641v0zM196.215 199.611c0-1.809 0-3.635 0-5.41 6.178-6.161 2.167-0.034 5.427-10.854-18.825 2.731-45.431 8.363-54.34 21.692 10.855 0 21.743 0 32.597 0 0-1.809 0-3.601 0-5.41 5.445-0.017 10.888-0.017 16.315-0.017v0zM71.185 242.961c36.608 10.838 98.287-5.871 125.031-10.838 0-3.601 0-7.237 0-10.838-37.206 1.229-71.441 14.609-103.287 5.41-10.855 0-21.743 0-32.597 0 0-1.809 0-3.601 0-5.41-5.427 0-10.889 0-16.316 0 0-1.792 0-3.635 0-5.41-3.635 0-7.254 0-10.871 0 0-1.826 0-3.601 0-5.427-3.618 0-7.253 0-10.871 0 0-1.775 0-3.635 0-5.41-7.509-4.915-9.506-3.755-21.743-5.41 1.809 5.41 3.618 10.837 5.444 16.264 19.524 8.892 43.264 20.565 65.212 27.067v0zM11.4 188.757c3.601 0 7.237 0 10.871 0 0 1.826 0 3.635 0 5.445 5.444 0 10.871 0 16.316 0 0 1.775 0 3.601 0 5.41 3.618 0 7.236 0 10.855 0 0 1.809 0 3.601 0 5.41 9.080 0 18.125 0 27.187 0 0 1.775 0 3.635 0 5.41 10.889-1.775 21.743-3.635 32.632-5.41-4.591-6.144 0.683-0.768-5.445-5.41-12.783-10.872-42.513-3.909-59.801-10.872 0-1.775 0-3.601 0-5.393-7.254-1.792-14.489-3.601-21.743-5.41-1.792-3.618-3.635-7.236-5.41-10.837-5.444-1.792-10.889-3.635-16.333-5.427 0 5.427 0 10.854 0 16.264 6.605 3.328 8.056 9.113 10.871 10.82v0z" />
<glyph unicode="&#xe659;" d="M0.017 480v-514.253h514.253v514.253h-514.253zM502.545-22.562h-490.854v490.854h490.872v-490.854z" />
<glyph unicode="&#xe65a;" d="M0.017 480v-512h512v512h-512zM500.361-20.377h-488.721v488.721h488.738v-488.721zM176.47 118.835c0.137-0.051 0.137-0.325 0.29-0.358l18.825-18.586 4.335-4.369h0.085l3.976-3.942c5.035-5 13.192-5 18.21 0l199.697 197.103c5.017 4.966 5.017 12.97 0 17.92l-27.221 26.931c-5.069 4.949-13.175 4.949-18.142 0l-163.345-161.229-77.739 77.261c-4.95 4.966-13.142 4.966-18.142 0l-27.204-26.931c-5.001-4.933-5.001-13.005 0-17.92l86.375-85.88z" />
<glyph unicode="&#xe65b;" d="M113.784 366.233v-298.683h298.683v298.683h-298.683zM405.675 74.325h-285.115v285.115h285.115v-285.115zM317.662 310.562h-35.721l-1.297 12.988h-25.019l-1.178-12.988h-45.688c-12.869 0-23.501-8.823-25.071-21.624h159.044c-1.57 12.817-12.168 21.624-25.071 21.624zM207.087 110.216h110.575c13.961 0 26.522 6.178 26.522 20.173v145.698c0 1.093-0.103 1.041-0.222 2.065h-161.69c-0.102-1.041-0.222-0.973-0.222-2.065v-145.698c0-13.995 11.059-20.173 25.037-20.173zM299.878 261.939h13.329v-131.976h-13.329v131.976zM256 261.939h13.329v-131.976h-13.329v131.976zM212.138 261.939h13.329v-131.976h-13.329v131.976z" />
<glyph unicode="&#xe65d;" d="M337.050 61.713l-81.050 88.559-81.067-88.559v301.807h162.116z" />
<glyph unicode="&#xe65e;" d="M167.424 194.236l-0.734-37.308-70.041 67.447 70.041 63.88 0.734-37.308h124.723v-56.712h-124.723zM161.69 80.827v68.028h22.665v-34.031h136.089v226.799h-136.089l0.307-44.63-22.971-0.7v79.36h215.45v-294.81l-215.45-0.017z" />
<glyph unicode="&#xe65f;" d="M257.639 476.126c-140.458 0-254.362-113.698-254.362-254.020 0-140.288 113.869-254.020 254.362-254.020 140.51 0.017 254.361 113.75 254.361 254.038 0 140.305-113.886 254.003-254.361 254.003zM257.639-19.183c-133.445 0-241.647 108.032-241.647 241.305s108.237 241.322 241.647 241.322c133.445 0 241.681-108.066 241.681-241.322 0-133.274-108.237-241.305-241.681-241.305z" />
</font>
</defs>
</svg>
